<?xml version="1.0" encoding="utf-8"?>
<!-- Generator: Adobe Illustrator 21.0.0, SVG Export Plug-In . SVG Version: 6.00 Build 0)  -->
<svg version="1.1" id="Layer_1" xmlns="http://www.w3.org/2000/svg" xmlns:xlink="http://www.w3.org/1999/xlink" x="0px" y="0px"
	 viewBox="0 0 250 250" style="enable-background:new 0 0 250 250;" xml:space="preserve">
<style type="text/css">
	.st0{fill:#0080FF;}
	.st1{fill:#DEDEDE;}
	.st2{fill:#161616;stroke:#161616;stroke-miterlimit:10;}
	.st3{fill:#A7A7A7;}
	.st4{fill:#BFBFBF;}
	.st5{fill:#0F0F0F;}
	.st6{fill:#080808;}
	.st7{fill:#1E1E1E;}
	.st8{fill:#3399FF;}
	.st9{fill:#66B3FF;}
	.st10{fill:#99CCFF;}
	.st11{fill:#0060BF;}
	.st12{fill:none;stroke:#FFFFFF;stroke-linecap:round;stroke-linejoin:round;stroke-miterlimit:10;}
	.st13{opacity:0.3;fill:url(#SVGID_1_);enable-background:new    ;}
</style>
<polygon class="st0" points="233.3,187.5 233.3,62.5 125,0 16.7,62.5 16.7,187.5 125,250 "/>
<g id="da">
	<g>
		<path class="st1" d="M145.1,187.5h-40.3c-5.5,0-10-4.5-10-10v-105c0-5.5,4.5-10,10-10h40.3c5.5,0,10,4.5,10,10v105
			C155.1,183,150.7,187.5,145.1,187.5z"/>
		<path class="st2" d="M129.9,71h-9.8c-0.3,0-0.5-0.2-0.5-0.4l0,0c0-0.3,0.2-0.5,0.5-0.5h9.8c0.3,0,0.4,0.2,0.4,0.5l0,0
			C130.4,70.8,130.2,71,129.9,71z"/>
		<circle class="st2" cx="125.2" cy="67.2" r="0.7"/>
		<path class="st3" d="M94.8,98.3h-0.2c-0.3,0-0.5-0.2-0.5-0.5v-8.2c0-0.3,0.2-0.5,0.5-0.5h0.2V98.3z"/>
		<path class="st3" d="M155.8,98.3h-0.2c-0.3,0-0.5-0.2-0.5-0.5v-8.2c0-0.3,0.2-0.5,0.5-0.5h0.2V98.3z"/>
		<path class="st3" d="M94.8,109.7h-0.2c-0.3,0-0.5-0.2-0.5-0.5V101c0-0.3,0.2-0.5,0.5-0.5h0.2V109.7z"/>
		<circle class="st4" cx="125.2" cy="180.1" r="3.8"/>
		<path class="st3" d="M94.4,83.4h0.5v-5.1h-0.5c-0.1,0-0.3,0.1-0.3,0.3v4.6C94.1,83.3,94.3,83.4,94.4,83.4z"/>
		<g>
			<circle class="st2" cx="115.4" cy="70.6" r="1.1"/>
			<circle class="st5" cx="115.4" cy="70.6" r="0.5"/>
			<circle class="st6" cx="115.4" cy="70.6" r="0.3"/>
		</g>
	</g>
	<g>
		<g>
			<rect x="98.8" y="78.6" class="st7" width="52.8" height="93.9"/>
			<rect x="98.8" y="78.4" class="st0" width="52.8" height="10"/>
			<path class="st8" d="M145,114h-40.2c-1.4,0-2.5-1.1-2.5-2.5V94.3c0-1.4,1.1-2.5,2.5-2.5H145c1.4,0,2.5,1.1,2.5,2.5v17.3
				C147.5,112.9,146.4,114,145,114z"/>
			<path class="st9" d="M144.6,141.2h-40.1c-1.4,0-2.5-1.1-2.5-2.5v-17.3c0-1.4,1.1-2.5,2.5-2.5h40.2c1.4,0,2.5,1.1,2.5,2.5v17.3
				C147.1,140.1,146,141.2,144.6,141.2z"/>
			<path class="st10" d="M144.6,168.4h-40.1c-1.4,0-2.5-1.1-2.5-2.5v-17.3c0-1.4,1.1-2.5,2.5-2.5h40.2c1.4,0,2.5,1.1,2.5,2.5v17.3
				C147.1,167.3,146,168.4,144.6,168.4z"/>
			<circle class="st11" cx="142.5" cy="162.6" r="5"/>
			<g>
				<line class="st12" x1="142.5" y1="160.1" x2="142.5" y2="165.1"/>
				<line class="st12" x1="145" y1="162.6" x2="140" y2="162.6"/>
			</g>
		</g>
		
			<linearGradient id="SVGID_1_" gradientUnits="userSpaceOnUse" x1="98.8" y1="-703.5" x2="151.6" y2="-703.5" gradientTransform="matrix(1 0 0 -1 0 -578)">
			<stop  offset="0" style="stop-color:#FFFFFF"/>
			<stop  offset="1" style="stop-color:#FFFFFF;stop-opacity:0"/>
		</linearGradient>
		<polygon class="st13" points="98.8,78.6 151.6,78.6 98.8,172.4 		"/>
	</g>
</g>
</svg>
