<?xml version="1.0" encoding="utf-8"?>
<!-- Generator: Adobe Illustrator 21.0.0, SVG Export Plug-In . SVG Version: 6.00 Build 0)  -->
<svg version="1.1" id="Layer_1" xmlns="http://www.w3.org/2000/svg" xmlns:xlink="http://www.w3.org/1999/xlink" x="0px" y="0px"
	 viewBox="0 0 250 250" style="enable-background:new 0 0 250 250;" xml:space="preserve">
<style type="text/css">
	.st0{fill:#DEDEDE;}
	.st1{fill:#161616;stroke:#161616;stroke-miterlimit:10;}
	.st2{fill:#A7A7A7;}
	.st3{fill:#BFBFBF;}
	.st4{fill:#0F0F0F;}
	.st5{fill:#080808;}
	.st6{fill:#1E1E1E;}
	.st7{fill:#0258A2;}
	.st8{fill:#3579B5;}
	.st9{fill:#679BC7;}
	.st10{fill:#9ABCDA;}
	.st11{fill:#012C51;}
	.st12{fill:none;stroke:#FFFFFF;stroke-width:2;stroke-linecap:round;stroke-linejoin:round;stroke-miterlimit:10;}
	.st13{opacity:0.3;fill:url(#SVGID_1_);}
</style>
<g id="da">
	<g>
		<path class="st0" d="M165.3,250H84.7c-11,0-20-9-20-20V20c0-11,9-20,20-20h80.7c11,0,20,9,20,20v210
			C185.3,241,176.4,250,165.3,250z"/>
		<path class="st1" d="M134.9,17h-19.5c-0.5,0-0.9-0.4-0.9-0.9l0,0c0-0.5,0.4-0.9,0.9-0.9h19.5c0.5,0,0.9,0.4,0.9,0.9l0,0
			C135.8,16.6,135.4,17,134.9,17z"/>
		<circle class="st1" cx="125.3" cy="9.3" r="1.3"/>
		<path class="st2" d="M64.7,71.7h-0.4c-0.6,0-1-0.4-1-1V54.3c0-0.6,0.4-1,1-1h0.4V71.7z"/>
		<path class="st2" d="M186.7,71.7h-0.4c-0.6,0-1-0.4-1-1V54.3c0-0.6,0.4-1,1-1h0.4V71.7z"/>
		<path class="st2" d="M64.7,94.3h-0.4c-0.6,0-1-0.4-1-1V76.9c0-0.6,0.4-1,1-1h0.4V94.3z"/>
		<circle class="st3" cx="125.3" cy="235.1" r="7.5"/>
		<path class="st2" d="M63.8,41.9h0.9V31.7h-0.9c-0.3,0-0.5,0.2-0.5,0.5v9.2C63.3,41.7,63.5,41.9,63.8,41.9z"/>
		<g>
			<circle class="st1" cx="105.8" cy="16.1" r="2.2"/>
			<circle class="st4" cx="105.8" cy="16.1" r="1.1"/>
			<circle class="st5" cx="105.8" cy="16.1" r="0.6"/>
		</g>
	</g>
	<g>
		<g>
			<rect x="72.5" y="32.1" class="st6" width="105.6" height="187.8"/>
			<rect x="72.5" y="31.9" class="st7" width="105.6" height="20"/>
			<path class="st8" d="M165,103H84.7c-2.8,0-5-2.2-5-5V63.5c0-2.8,2.2-5,5-5H165c2.8,0,5,2.2,5,5V98C170,100.8,167.8,103,165,103z"
				/>
			<path class="st9" d="M164.2,157.4H83.9c-2.8,0-5-2.2-5-5v-34.5c0-2.8,2.2-5,5-5h80.3c2.8,0,5,2.2,5,5v34.5
				C169.2,155.2,167,157.4,164.2,157.4z"/>
			<path class="st10" d="M164.2,211.8H83.9c-2.8,0-5-2.2-5-5v-34.5c0-2.8,2.2-5,5-5h80.3c2.8,0,5,2.2,5,5v34.5
				C169.2,209.6,167,211.8,164.2,211.8z"/>
			<circle class="st11" cx="160" cy="200.3" r="10"/>
			<g>
				<line class="st12" x1="160" y1="195.3" x2="160" y2="205.3"/>
				<line class="st12" x1="165" y1="200.3" x2="155" y2="200.3"/>
			</g>
		</g>
		<linearGradient id="SVGID_1_" gradientUnits="userSpaceOnUse" x1="72.4896" y1="125.9792" x2="178.0833" y2="125.9792">
			<stop  offset="0" style="stop-color:#FFFFFF"/>
			<stop  offset="1" style="stop-color:#FFFFFF;stop-opacity:0"/>
		</linearGradient>
		<polygon class="st13" points="72.5,32.1 178.1,32.1 72.5,219.9 		"/>
	</g>
</g>
</svg>
