<?xml version="1.0" encoding="utf-8"?>
<!-- Generator: Adobe Illustrator 21.0.0, SVG Export Plug-In . SVG Version: 6.00 Build 0)  -->
<svg version="1.1" id="Layer_1" xmlns="http://www.w3.org/2000/svg" xmlns:xlink="http://www.w3.org/1999/xlink" x="0px" y="0px"
	 viewBox="0 0 250 250" style="enable-background:new 0 0 250 250;" xml:space="preserve">
<style type="text/css">
	.st0{fill:#0080FF;}
	.st1{display:none;}
	.st2{display:inline;}
	.st3{fill:#101010;}
	.st4{fill:#161616;}
	.st5{fill:#DDDDE1;}
	.st6{opacity:0.3;clip-path:url(#SVGID_2_);fill:url(#SVGID_3_);enable-background:new    ;}
	.st7{fill:#DEDEDE;}
	.st8{fill:#0258A2;}
	.st9{fill:#1E1E1E;}
	.st10{fill:#707070;}
	.st11{opacity:0.3;clip-path:url(#SVGID_5_);fill:url(#SVGID_6_);enable-background:new    ;}
	.st12{fill:#404040;}
</style>
<polygon class="st0" points="233.3,187.5 233.3,62.5 125,0 16.7,62.5 16.7,187.5 125,250 "/>
<g class="st1">
	<g class="st2">
		<g>
			<path class="st3" d="M71.6,133.4h106.8c2.7,0,4.9,2.2,4.9,4.9v106.8c0,2.7-2.2,4.9-4.9,4.9H71.6c-2.7,0-4.9-2.2-4.9-4.9V138.3
				C66.7,135.6,68.9,133.4,71.6,133.4z"/>
			<path class="st4" d="M79.7,141.3h90.7c2.8,0,5,2.2,5,5V237c0,2.8-2.2,5-5,5H79.7c-2.8,0-5-2.2-5-5v-90.7
				C74.7,143.6,76.9,141.3,79.7,141.3z"/>
		</g>
		<g>
			<g>
				<path class="st5" d="M138.9,161.4c8,0,14.6,6.5,14.6,14.6s-6.5,14.6-14.6,14.6c-8,0-14.6-6.5-14.6-14.6S130.9,161.4,138.9,161.4
					 M138.9,151.7c-13.4,0-24.3,10.9-24.3,24.3c0,13.4,10.9,24.3,24.3,24.3s24.3-10.9,24.3-24.3
					C163.2,162.6,152.3,151.7,138.9,151.7L138.9,151.7z"/>
				<g>
					<path class="st5" d="M155.4,153.4c-0.5,0-1,0.2-1.4,0.6l-4.1,4.1c-0.8,0.8-0.8,2,0,2.8l4.1,4.1c0.4,0.4,0.9,0.6,1.4,0.6
						s1-0.2,1.4-0.6l4.1-4.1c0.8-0.8,0.8-2,0-2.8l-4.1-4.1C156.4,153.6,155.9,153.4,155.4,153.4L155.4,153.4z"/>
					<path class="st5" d="M165.2,171.1h-5.8c-1.1,0-1.9,0.9-1.9,1.9v5.8c0,1.1,0.9,1.9,1.9,1.9h5.8c1.1,0,1.9-0.9,1.9-1.9V173
						C167.2,172,166.3,171.1,165.2,171.1L165.2,171.1z"/>
					<path class="st5" d="M155.4,186.5c-0.5,0-1,0.2-1.4,0.6l-4.1,4.1c-0.8,0.8-0.8,2,0,2.8l4.1,4.1c0.4,0.4,0.9,0.6,1.4,0.6
						s1-0.2,1.4-0.6l4.1-4.1c0.8-0.8,0.8-2,0-2.8l-4.1-4.1C156.4,186.7,155.9,186.5,155.4,186.5L155.4,186.5z"/>
					<path class="st5" d="M141.8,194.5H136c-1.1,0-1.9,0.9-1.9,1.9v5.8c0,1.1,0.9,1.9,1.9,1.9h5.8c1.1,0,1.9-0.9,1.9-1.9v-5.8
						C143.8,195.4,142.9,194.5,141.8,194.5L141.8,194.5z"/>
					<path class="st5" d="M122.4,186.5c-0.5,0-1,0.2-1.4,0.6l-4.1,4.1c-0.8,0.8-0.8,2,0,2.8l4.1,4.1c0.4,0.4,0.9,0.6,1.4,0.6
						s1-0.2,1.4-0.6l4.1-4.1c0.8-0.8,0.8-2,0-2.8l-4.1-4.1C123.3,186.7,122.8,186.5,122.4,186.5L122.4,186.5z"/>
					<path class="st5" d="M118.4,171.1h-5.8c-1.1,0-1.9,0.9-1.9,1.9v5.8c0,1.1,0.9,1.9,1.9,1.9h5.8c1.1,0,1.9-0.9,1.9-1.9V173
						C120.4,172,119.5,171.1,118.4,171.1L118.4,171.1z"/>
					<path class="st5" d="M122.4,153.4c-0.5,0-1,0.2-1.4,0.6l-4.1,4.1c-0.8,0.8-0.8,2,0,2.8l4.1,4.1c0.4,0.4,0.9,0.6,1.4,0.6
						s1-0.2,1.4-0.6l4.1-4.1c0.8-0.8,0.8-2,0-2.8l-4.1-4.1C123.3,153.6,122.8,153.4,122.4,153.4L122.4,153.4z"/>
					<path class="st5" d="M141.8,147.7H136c-1.1,0-1.9,0.9-1.9,1.9v5.8c0,1.1,0.9,1.9,1.9,1.9h5.8c1.1,0,1.9-0.9,1.9-1.9v-5.8
						C143.8,148.6,142.9,147.7,141.8,147.7L141.8,147.7z"/>
				</g>
			</g>
			<g>
				<path class="st5" d="M116.7,211.9c4.5-1.8,9.6,0.3,11.4,4.8c1.8,4.5-0.3,9.6-4.8,11.4c-4.5,1.8-9.6-0.3-11.4-4.8
					C110.1,218.9,112.3,213.8,116.7,211.9 M114.5,206.6c-7.4,3-11,11.6-8,19s11.6,11,19,8c7.4-3,11-11.6,8-19S122,203.5,114.5,206.6
					L114.5,206.6z"/>
				<g>
					<path class="st5" d="M124.1,203.7c-0.3,0.1-0.5,0.3-0.6,0.6l-1.4,3.2c-0.2,0.6,0,1.3,0.6,1.5l3.2,1.4c0.3,0.1,0.6,0.1,0.9,0
						s0.5-0.3,0.6-0.6l1.4-3.2c0.2-0.6,0-1.3-0.6-1.5l-3.2-1.4C124.7,203.6,124.4,203.6,124.1,203.7L124.1,203.7z"/>
					<path class="st5" d="M133.5,211.4l-3.2,1.3c-0.6,0.2-0.9,0.9-0.6,1.5l1.3,3.2c0.2,0.6,0.9,0.9,1.5,0.6l3.2-1.3
						c0.6-0.2,0.9-0.9,0.6-1.5L135,212C134.8,211.4,134.1,211.1,133.5,211.4L133.5,211.4z"/>
					<path class="st5" d="M131.6,222.1c-0.3,0.1-0.5,0.3-0.6,0.6l-1.4,3.2c-0.2,0.6,0,1.3,0.6,1.5l3.2,1.4c0.3,0.1,0.6,0.1,0.9,0
						c0.3-0.1,0.5-0.3,0.6-0.6l1.4-3.2c0.2-0.6,0-1.3-0.6-1.5l-3.2-1.4C132.2,222,131.9,222,131.6,222.1L131.6,222.1z"/>
					<path class="st5" d="M125.9,229.7l-3.2,1.3c-0.6,0.2-0.9,0.9-0.6,1.5l1.3,3.2c0.2,0.6,0.9,0.9,1.5,0.6l3.2-1.3
						c0.6-0.2,0.9-0.9,0.6-1.5l-1.3-3.2C127.1,229.7,126.5,229.4,125.9,229.7L125.9,229.7z"/>
					<path class="st5" d="M113.2,229.6c-0.3,0.1-0.5,0.3-0.6,0.6l-1.4,3.2c-0.2,0.6,0,1.3,0.6,1.5l3.2,1.4c0.3,0.1,0.6,0.1,0.9,0
						s0.5-0.3,0.6-0.6l1.4-3.2c0.2-0.6,0-1.3-0.6-1.5l-3.2-1.4C113.8,229.5,113.5,229.5,113.2,229.6L113.2,229.6z"/>
					<path class="st5" d="M107.6,222l-3.2,1.3c-0.6,0.2-0.9,0.9-0.6,1.5l1.3,3.2c0.2,0.6,0.9,0.9,1.5,0.6l3.2-1.3
						c0.6-0.2,0.9-0.9,0.6-1.5l-1.3-3.2C108.9,222,108.2,221.7,107.6,222L107.6,222z"/>
					<path class="st5" d="M105.7,211.3c-0.3,0.1-0.5,0.3-0.6,0.6l-1.4,3.2c-0.2,0.6,0,1.3,0.6,1.5l3.2,1.4c0.3,0.1,0.6,0.1,0.9,0
						s0.5-0.3,0.6-0.6l1.4-3.2c0.2-0.6,0-1.3-0.6-1.5l-3.2-1.4C106.3,211.1,106,211.1,105.7,211.3L105.7,211.3z"/>
					<path class="st5" d="M115.2,203.7L112,205c-0.6,0.2-0.9,0.9-0.6,1.5l1.3,3.2c0.2,0.6,0.9,0.9,1.5,0.6l3.2-1.3
						c0.6-0.2,0.9-0.9,0.6-1.5l-1.3-3.2C116.5,203.7,115.8,203.5,115.2,203.7L115.2,203.7z"/>
				</g>
			</g>
			<g>
				<path class="st5" d="M96.5,184.9c3.9,0,7.1,3.2,7.1,7.1c0,3.9-3.2,7.1-7.1,7.1s-7.1-3.2-7.1-7.1
					C89.5,188.1,92.6,184.9,96.5,184.9 M96.5,180.2c-6.5,0-11.8,5.3-11.8,11.8s5.3,11.8,11.8,11.8s11.8-5.3,11.8-11.8
					S103,180.2,96.5,180.2L96.5,180.2z"/>
				<g>
					<path class="st5" d="M104.6,181c-0.2,0-0.5,0.1-0.7,0.3l-2,2c-0.4,0.4-0.4,1,0,1.3l2,2c0.2,0.2,0.4,0.3,0.7,0.3
						c0.2,0,0.5-0.1,0.7-0.3l2-2c0.4-0.4,0.4-1,0-1.3l-2-2C105,181.1,104.8,181,104.6,181L104.6,181z"/>
					<path class="st5" d="M109.3,189.6h-2.8c-0.5,0-0.9,0.4-0.9,0.9v2.8c0,0.5,0.4,0.9,0.9,0.9h2.8c0.5,0,0.9-0.4,0.9-0.9v-2.8
						C110.2,190.1,109.8,189.6,109.3,189.6L109.3,189.6z"/>
					<path class="st5" d="M104.6,197.1c-0.2,0-0.5,0.1-0.7,0.3l-2,2c-0.4,0.4-0.4,1,0,1.3l2,2c0.2,0.2,0.4,0.3,0.7,0.3
						c0.2,0,0.5-0.1,0.7-0.3l2-2c0.4-0.4,0.4-1,0-1.3l-2-2C105,197.2,104.8,197.1,104.6,197.1L104.6,197.1z"/>
					<path class="st5" d="M97.9,201h-2.8c-0.5,0-0.9,0.4-0.9,0.9v2.8c0,0.5,0.4,0.9,0.9,0.9h2.8c0.5,0,0.9-0.4,0.9-0.9v-2.8
						C98.9,201.4,98.5,201,97.9,201L97.9,201z"/>
					<path class="st5" d="M88.5,197.1c-0.2,0-0.5,0.1-0.7,0.3l-2,2c-0.4,0.4-0.4,1,0,1.3l2,2c0.2,0.2,0.4,0.3,0.7,0.3
						c0.2,0,0.5-0.1,0.7-0.3l2-2c0.4-0.4,0.4-1,0-1.3l-2-2C89,197.2,88.8,197.1,88.5,197.1L88.5,197.1z"/>
					<path class="st5" d="M86.6,189.6h-2.8c-0.5,0-0.9,0.4-0.9,0.9v2.8c0,0.5,0.4,0.9,0.9,0.9h2.8c0.5,0,0.9-0.4,0.9-0.9v-2.8
						C87.6,190,87.1,189.6,86.6,189.6L86.6,189.6z"/>
					<path class="st5" d="M88.5,181c-0.2,0-0.5,0.1-0.7,0.3l-2,2c-0.4,0.4-0.4,1,0,1.3l2,2c0.2,0.2,0.4,0.3,0.7,0.3
						c0.2,0,0.5-0.1,0.7-0.3l2-2c0.4-0.4,0.4-1,0-1.3l-2-2C89,181.1,88.8,181,88.5,181L88.5,181z"/>
					<path class="st5" d="M98,178.3h-2.8c-0.5,0-0.9,0.4-0.9,0.9v2.8c0,0.5,0.4,0.9,0.9,0.9H98c0.5,0,0.9-0.4,0.9-0.9v-2.8
						C98.9,178.7,98.5,178.3,98,178.3L98,178.3z"/>
				</g>
			</g>
		</g>
		<g>
			<g>
				<g>
					<g>
						<g>
							<defs>
								<path id="SVGID_1_" d="M79.5,141.3h90.7c2.8,0,5,2.2,5,5V237c0,2.8-2.2,5-5,5H79.5c-2.8,0-5-2.2-5-5v-90.7
									C74.5,143.6,76.8,141.3,79.5,141.3z"/>
							</defs>
							<clipPath id="SVGID_2_">
								<use xlink:href="#SVGID_1_"  style="overflow:visible;"/>
							</clipPath>
							
								<linearGradient id="SVGID_3_" gradientUnits="userSpaceOnUse" x1="84.9532" y1="954.0192" x2="134.4466" y2="1039.744" gradientTransform="matrix(1 0 0 1 0 -830)">
								<stop  offset="0" style="stop-color:#FFFFFF"/>
								<stop  offset="1" style="stop-color:#FFFFFF;stop-opacity:0"/>
							</linearGradient>
							<polygon class="st6" points="66.8,248.8 181.2,134.5 66.8,134.5 							"/>
						</g>
					</g>
				</g>
			</g>
		</g>
	</g>
	<g class="st2">
		<g>
			<g>
				<polygon class="st7" points="83,116 73.2,116 73.2,93 55.3,75.1 55.3,60.6 65.2,60.6 65.2,71.1 83,88.9 				"/>
			</g>
			<g>
				<polygon class="st7" points="106.5,116 96.6,116 96.6,68.1 79.1,50.6 79.1,36.3 89,36.3 89,46.6 106.5,64.1 				"/>
			</g>
			<g>
				<polygon class="st7" points="176.8,116.3 167,116.3 167,87.9 184.8,70.1 184.8,59.6 194.7,59.6 194.7,74.1 176.8,92 				"/>
			</g>
			<g>
				<polygon class="st7" points="153.4,116.3 143.5,116.3 143.5,64.4 161,46.9 161,36.6 170.9,36.6 170.9,51 153.4,68.5 				"/>
			</g>
			<g>
				<rect x="120.1" y="28.3" class="st7" width="9.9" height="87.7"/>
			</g>
		</g>
		<g>
			<g>
				<g>
					<g>
						<path class="st8" d="M165.6,121.1v-10.2c0-2.7,2.2-5,5-5h2.8c2.7,0,5,2.2,5,5v10.2c0,2.7-2.2,5-5,5h-2.8
							C167.8,126,165.6,123.8,165.6,121.1z"/>
					</g>
				</g>
			</g>
			<g>
				<g>
					<g>
						<path class="st8" d="M142.1,121.1v-10.2c0-2.7,2.2-5,5-5h2.8c2.7,0,5,2.2,5,5v10.2c0,2.7-2.2,5-5,5h-2.8
							C144.3,126,142.1,123.8,142.1,121.1z"/>
					</g>
				</g>
			</g>
			<g>
				<g>
					<g>
						<path class="st8" d="M118.6,121.1v-10.2c0-2.7,2.2-5,5-5h2.8c2.7,0,5,2.2,5,5v10.2c0,2.7-2.2,5-5,5h-2.8
							C120.9,126,118.6,123.8,118.6,121.1z"/>
					</g>
				</g>
			</g>
			<g>
				<g>
					<g>
						<path class="st8" d="M95.2,121.1v-10.2c0-2.7,2.2-5,5-5h2.8c2.7,0,5,2.2,5,5v10.2c0,2.7-2.2,5-5,5h-2.8
							C97.4,126,95.2,123.8,95.2,121.1z"/>
					</g>
				</g>
			</g>
			<g>
				<g>
					<g>
						<path class="st8" d="M71.7,121.1v-10.2c0-2.7,2.2-5,5-5h2.8c2.7,0,5,2.2,5,5v10.2c0,2.7-2.2,5-5,5h-2.8
							C74,126,71.7,123.8,71.7,121.1z"/>
					</g>
				</g>
			</g>
		</g>
		<g>
			<g>
				<path class="st8" d="M84,39.7c-8.8,0-15.9-7.1-15.9-15.9S75.3,8,84,8s15.9,7.1,15.9,15.9S92.8,39.7,84,39.7z M84,14.9
					c-5,0-9,4-9,9s4,9,9,9s9-4,9-9S89,14.9,84,14.9z"/>
			</g>
			<g>
				<path class="st8" d="M125,31.8c-8.8,0-15.9-7.1-15.9-15.9S116.2,0,125,0s15.9,7.1,15.9,15.9S133.8,31.8,125,31.8z M125,6.9
					c-5,0-9,4-9,9s4,9,9,9s9-4,9-9S130,6.9,125,6.9z"/>
			</g>
			<g>
				<path class="st8" d="M166,40.1c-8.8,0-15.9-7.1-15.9-15.9S157.2,8.3,166,8.3s15.9,7.1,15.9,15.9S174.7,40.1,166,40.1z M166,15.2
					c-5,0-9,4-9,9s4,9,9,9s9-4,9-9S170.9,15.2,166,15.2z"/>
			</g>
			<g>
				<path class="st8" d="M189.8,63.1c-8.8,0-15.9-7.1-15.9-15.9s7.1-15.9,15.9-15.9s15.9,7.1,15.9,15.9S198.5,63.1,189.8,63.1z
					 M189.8,38.2c-5,0-9,4-9,9s4,9,9,9s9-4,9-9S194.7,38.2,189.8,38.2z"/>
			</g>
			<g>
				<path class="st8" d="M60.2,64.1c-8.8,0-15.9-7.1-15.9-15.9s7.1-15.9,15.9-15.9s15.9,7.1,15.9,15.9S69,64.1,60.2,64.1z
					 M60.2,39.2c-5,0-9,4-9,9s4,9,9,9s9-4,9-9S65.2,39.2,60.2,39.2z"/>
			</g>
		</g>
	</g>
</g>
<g>
	<g>
		<g>
			<path class="st9" d="M98.3,129.2h53.3c1.4,0,2.5,1.1,2.5,2.5V185c0,1.4-1.1,2.5-2.5,2.5H98.3c-1.4,0-2.5-1.1-2.5-2.5v-53.3
				C95.8,130.3,96.9,129.2,98.3,129.2z"/>
			<path class="st10" d="M102.3,133.2h45.3c1.4,0,2.5,1.1,2.5,2.5V181c0,1.4-1.1,2.5-2.5,2.5h-45.3c-1.4,0-2.5-1.1-2.5-2.5v-45.4
				C99.8,134.3,100.9,133.2,102.3,133.2z"/>
		</g>
		<g>
			<g>
				<g>
					<g>
						<g>
							<defs>
								<path id="SVGID_4_" d="M102.3,133.2h45.3c1.4,0,2.5,1.1,2.5,2.5V181c0,1.4-1.1,2.5-2.5,2.5h-45.3c-1.4,0-2.5-1.1-2.5-2.5
									v-45.4C99.8,134.3,100.9,133.2,102.3,133.2z"/>
							</defs>
							<use xlink:href="#SVGID_4_"  style="overflow:visible;fill:#4B4B4B;"/>
							<clipPath id="SVGID_5_">
								<use xlink:href="#SVGID_4_"  style="overflow:visible;"/>
							</clipPath>
							
								<linearGradient id="SVGID_6_" gradientUnits="userSpaceOnUse" x1="105.05" y1="954.575" x2="129.775" y2="997.4" gradientTransform="matrix(1 0 0 1 0 -830)">
								<stop  offset="0" style="stop-color:#FFFFFF"/>
								<stop  offset="1" style="stop-color:#FFFFFF;stop-opacity:0"/>
							</linearGradient>
							<polygon class="st11" points="96,186.9 153.1,129.8 96,129.8 							"/>
						</g>
					</g>
				</g>
			</g>
		</g>
	</g>
	<g>
		<g>
			<g>
				<polygon class="st7" points="104.1,120.5 99.1,120.5 99.1,109 90.2,100.1 90.2,92.8 95.1,92.8 95.1,98.1 104.1,106.9 				"/>
			</g>
			<g>
				<polygon class="st7" points="115.8,120.5 110.8,120.5 110.8,96.6 102.1,87.8 102.1,80.7 107,80.7 107,85.8 115.8,94.6 				"/>
			</g>
			<g>
				<polygon class="st7" points="150.9,120.7 145.9,120.7 145.9,106.4 154.9,97.6 154.9,92.3 159.9,92.3 159.9,99.6 150.9,108.5 
									"/>
			</g>
			<g>
				<polygon class="st7" points="139.2,120.7 134.3,120.7 134.3,94.7 143,85.9 143,80.8 147.9,80.8 147.9,88 139.2,96.8 				"/>
			</g>
			<g>
				<rect x="122.5" y="76.7" class="st7" width="4.9" height="43.8"/>
			</g>
		</g>
		<g>
			<g>
				<g>
					<g>
						<path class="st9" d="M145.3,123.1V118c0-1.3,1.1-2.5,2.5-2.5h1.4c1.4,0,2.5,1.1,2.5,2.5v5.1c0,1.3-1.1,2.5-2.5,2.5h-1.4
							C146.4,125.5,145.3,124.4,145.3,123.1z"/>
					</g>
				</g>
			</g>
			<g>
				<g>
					<g>
						<path class="st9" d="M133.6,123.1V118c0-1.3,1.1-2.5,2.5-2.5h1.4c1.3,0,2.5,1.1,2.5,2.5v5.1c0,1.3-1.1,2.5-2.5,2.5h-1.4
							C134.6,125.5,133.6,124.4,133.6,123.1z"/>
					</g>
				</g>
			</g>
			<g>
				<g>
					<g>
						<path class="st9" d="M121.8,123.1V118c0-1.3,1.1-2.5,2.5-2.5h1.4c1.4,0,2.5,1.1,2.5,2.5v5.1c0,1.3-1.1,2.5-2.5,2.5h-1.4
							C122.9,125.5,121.8,124.4,121.8,123.1z"/>
					</g>
				</g>
			</g>
			<g>
				<g>
					<g>
						<path class="st9" d="M110.1,123.1V118c0-1.3,1.1-2.5,2.5-2.5h1.4c1.3,0,2.5,1.1,2.5,2.5v5.1c0,1.3-1.1,2.5-2.5,2.5h-1.4
							C111.2,125.5,110.1,124.4,110.1,123.1z"/>
					</g>
				</g>
			</g>
			<g>
				<g>
					<g>
						<path class="st9" d="M98.3,123.1V118c0-1.3,1.1-2.5,2.5-2.5h1.4c1.3,0,2.5,1.1,2.5,2.5v5.1c0,1.3-1.1,2.5-2.5,2.5h-1.4
							C99.5,125.5,98.3,124.4,98.3,123.1z"/>
					</g>
				</g>
			</g>
		</g>
		<g>
			<g>
				<path class="st12" d="M104.6,82.4c-4.4,0-8-3.6-8-8s3.6-7.9,8-7.9s7.9,3.6,7.9,7.9C112.5,78.8,108.9,82.4,104.6,82.4z
					 M104.6,69.9c-2.5,0-4.5,2-4.5,4.5c0,2.4,2,4.4,4.5,4.4c2.4,0,4.4-2,4.4-4.4C109,71.9,107,69.9,104.6,69.9z"/>
			</g>
			<g>
				<path class="st12" d="M125,78.4c-4.4,0-7.9-3.6-7.9-8s3.5-7.9,7.9-7.9c4.4,0,7.9,3.6,7.9,7.9C132.9,74.8,129.4,78.4,125,78.4z
					 M125,66c-2.4,0-4.4,2-4.4,4.4c0,2.5,2,4.5,4.4,4.5s4.4-2,4.4-4.5C129.4,68,127.4,66,125,66z"/>
			</g>
			<g>
				<path class="st12" d="M145.4,82.6c-4.4,0-7.9-3.6-7.9-8s3.6-7.9,7.9-7.9c4.4,0,7.9,3.5,7.9,7.9S149.9,82.6,145.4,82.6z
					 M145.4,70.1c-2.4,0-4.4,2-4.4,4.5c0,2.4,2,4.4,4.4,4.4s4.4-2,4.4-4.4C149.9,72.1,147.9,70.1,145.4,70.1z"/>
			</g>
			<g>
				<path class="st12" d="M157.4,94.1c-4.4,0-7.9-3.6-7.9-8s3.5-7.9,7.9-7.9s8,3.5,8,7.9S161.8,94.1,157.4,94.1z M157.4,81.7
					c-2.4,0-4.4,2-4.4,4.4s2,4.5,4.4,4.5c2.5,0,4.5-2,4.5-4.5S159.9,81.7,157.4,81.7z"/>
			</g>
			<g>
				<path class="st12" d="M92.6,94.6c-4.4,0-7.9-3.6-7.9-8s3.5-8,8-8c4.4,0,7.9,3.6,7.9,8S97,94.6,92.6,94.6z M92.6,82.2
					c-2.4,0-4.4,2-4.4,4.4s2,4.5,4.5,4.5c2.4,0,4.4-2,4.4-4.5S95.1,82.2,92.6,82.2z"/>
			</g>
		</g>
	</g>
</g>
</svg>
