<?xml version="1.0" encoding="utf-8"?>
<!-- Generator: Adobe Illustrator 21.0.0, SVG Export Plug-In . SVG Version: 6.00 Build 0)  -->
<svg version="1.1" id="Layer_1" xmlns="http://www.w3.org/2000/svg" xmlns:xlink="http://www.w3.org/1999/xlink" x="0px" y="0px"
	 viewBox="0 0 250 250" style="enable-background:new 0 0 250 250;" xml:space="preserve">
<style type="text/css">
	.st0{display:none;}
	.st1{display:inline;}
	.st2{fill:#101010;}
	.st3{fill:#161616;}
	.st4{fill:#DDDDE1;}
	.st5{opacity:0.3;clip-path:url(#SVGID_2_);fill:url(#SVGID_3_);}
	.st6{fill:#DEDEDE;}
	.st7{fill:#0258A2;}
	.st8{opacity:0.3;clip-path:url(#SVGID_5_);fill:url(#SVGID_6_);}
</style>
<g class="st0">
	<g class="st1">
		<g>
			<path class="st2" d="M71.6,133.4h106.8c2.7,0,4.9,2.2,4.9,4.9v106.8c0,2.7-2.2,4.9-4.9,4.9H71.6c-2.7,0-4.9-2.2-4.9-4.9V138.3
				C66.7,135.6,68.9,133.4,71.6,133.4z"/>
			<path class="st3" d="M79.7,141.3h90.7c2.8,0,5,2.2,5,5V237c0,2.8-2.2,5-5,5H79.7c-2.8,0-5-2.2-5-5v-90.7
				C74.7,143.6,76.9,141.3,79.7,141.3z"/>
		</g>
		<g>
			<g>
				<path class="st4" d="M138.9,161.4c8,0,14.6,6.5,14.6,14.6s-6.5,14.6-14.6,14.6c-8,0-14.6-6.5-14.6-14.6S130.9,161.4,138.9,161.4
					 M138.9,151.7c-13.4,0-24.3,10.9-24.3,24.3c0,13.4,10.9,24.3,24.3,24.3c13.4,0,24.3-10.9,24.3-24.3
					C163.2,162.6,152.3,151.7,138.9,151.7L138.9,151.7z"/>
				<g>
					<path class="st4" d="M155.4,153.4c-0.5,0-1,0.2-1.4,0.6l-4.1,4.1c-0.8,0.8-0.8,2,0,2.8l4.1,4.1c0.4,0.4,0.9,0.6,1.4,0.6
						c0.5,0,1-0.2,1.4-0.6l4.1-4.1c0.8-0.8,0.8-2,0-2.8l-4.1-4.1C156.4,153.6,155.9,153.4,155.4,153.4L155.4,153.4z"/>
					<path class="st4" d="M165.2,171.1h-5.8c-1.1,0-1.9,0.9-1.9,1.9v5.8c0,1.1,0.9,1.9,1.9,1.9h5.8c1.1,0,1.9-0.9,1.9-1.9v-5.8
						C167.2,172,166.3,171.1,165.2,171.1L165.2,171.1z"/>
					<path class="st4" d="M155.4,186.5c-0.5,0-1,0.2-1.4,0.6l-4.1,4.1c-0.8,0.8-0.8,2,0,2.8l4.1,4.1c0.4,0.4,0.9,0.6,1.4,0.6
						c0.5,0,1-0.2,1.4-0.6l4.1-4.1c0.8-0.8,0.8-2,0-2.8l-4.1-4.1C156.4,186.7,155.9,186.5,155.4,186.5L155.4,186.5z"/>
					<path class="st4" d="M141.8,194.5H136c-1.1,0-1.9,0.9-1.9,1.9v5.8c0,1.1,0.9,1.9,1.9,1.9h5.8c1.1,0,1.9-0.9,1.9-1.9v-5.8
						C143.8,195.4,142.9,194.5,141.8,194.5L141.8,194.5z"/>
					<path class="st4" d="M122.4,186.5c-0.5,0-1,0.2-1.4,0.6l-4.1,4.1c-0.8,0.8-0.8,2,0,2.8l4.1,4.1c0.4,0.4,0.9,0.6,1.4,0.6
						c0.5,0,1-0.2,1.4-0.6l4.1-4.1c0.8-0.8,0.8-2,0-2.8l-4.1-4.1C123.3,186.7,122.8,186.5,122.4,186.5L122.4,186.5z"/>
					<path class="st4" d="M118.4,171.1h-5.8c-1.1,0-1.9,0.9-1.9,1.9v5.8c0,1.1,0.9,1.9,1.9,1.9h5.8c1.1,0,1.9-0.9,1.9-1.9v-5.8
						C120.4,172,119.5,171.1,118.4,171.1L118.4,171.1z"/>
					<path class="st4" d="M122.4,153.4c-0.5,0-1,0.2-1.4,0.6l-4.1,4.1c-0.8,0.8-0.8,2,0,2.8l4.1,4.1c0.4,0.4,0.9,0.6,1.4,0.6
						c0.5,0,1-0.2,1.4-0.6l4.1-4.1c0.8-0.8,0.8-2,0-2.8l-4.1-4.1C123.3,153.6,122.8,153.4,122.4,153.4L122.4,153.4z"/>
					<path class="st4" d="M141.8,147.7H136c-1.1,0-1.9,0.9-1.9,1.9v5.8c0,1.1,0.9,1.9,1.9,1.9h5.8c1.1,0,1.9-0.9,1.9-1.9v-5.8
						C143.8,148.6,142.9,147.7,141.8,147.7L141.8,147.7z"/>
				</g>
			</g>
			<g>
				<path class="st4" d="M116.7,211.9c4.5-1.8,9.6,0.3,11.4,4.8c1.8,4.5-0.3,9.6-4.8,11.4c-4.5,1.8-9.6-0.3-11.4-4.8
					C110.1,218.9,112.3,213.8,116.7,211.9 M114.5,206.6c-7.4,3-11,11.6-8,19c3,7.4,11.6,11,19,8c7.4-3,11-11.6,8-19
					S122,203.5,114.5,206.6L114.5,206.6z"/>
				<g>
					<path class="st4" d="M124.1,203.7c-0.3,0.1-0.5,0.3-0.6,0.6l-1.4,3.2c-0.2,0.6,0,1.3,0.6,1.5l3.2,1.4c0.3,0.1,0.6,0.1,0.9,0
						s0.5-0.3,0.6-0.6l1.4-3.2c0.2-0.6,0-1.3-0.6-1.5l-3.2-1.4C124.7,203.6,124.4,203.6,124.1,203.7L124.1,203.7z"/>
					<path class="st4" d="M133.5,211.4l-3.2,1.3c-0.6,0.2-0.9,0.9-0.6,1.5l1.3,3.2c0.2,0.6,0.9,0.9,1.5,0.6l3.2-1.3
						c0.6-0.2,0.9-0.9,0.6-1.5L135,212C134.8,211.4,134.1,211.1,133.5,211.4L133.5,211.4z"/>
					<path class="st4" d="M131.6,222.1c-0.3,0.1-0.5,0.3-0.6,0.6l-1.4,3.2c-0.2,0.6,0,1.3,0.6,1.5l3.2,1.4c0.3,0.1,0.6,0.1,0.9,0
						c0.3-0.1,0.5-0.3,0.6-0.6l1.4-3.2c0.2-0.6,0-1.3-0.6-1.5l-3.2-1.4C132.2,222,131.9,222,131.6,222.1L131.6,222.1z"/>
					<path class="st4" d="M125.9,229.7l-3.2,1.3c-0.6,0.2-0.9,0.9-0.6,1.5l1.3,3.2c0.2,0.6,0.9,0.9,1.5,0.6l3.2-1.3
						c0.6-0.2,0.9-0.9,0.6-1.5l-1.3-3.2C127.1,229.7,126.5,229.4,125.9,229.7L125.9,229.7z"/>
					<path class="st4" d="M113.2,229.6c-0.3,0.1-0.5,0.3-0.6,0.6l-1.4,3.2c-0.2,0.6,0,1.3,0.6,1.5l3.2,1.4c0.3,0.1,0.6,0.1,0.9,0
						c0.3-0.1,0.5-0.3,0.6-0.6l1.4-3.2c0.2-0.6,0-1.3-0.6-1.5l-3.2-1.4C113.8,229.5,113.5,229.5,113.2,229.6L113.2,229.6z"/>
					<path class="st4" d="M107.6,222l-3.2,1.3c-0.6,0.2-0.9,0.9-0.6,1.5l1.3,3.2c0.2,0.6,0.9,0.9,1.5,0.6l3.2-1.3
						c0.6-0.2,0.9-0.9,0.6-1.5l-1.3-3.2C108.9,222,108.2,221.7,107.6,222L107.6,222z"/>
					<path class="st4" d="M105.7,211.3c-0.3,0.1-0.5,0.3-0.6,0.6l-1.4,3.2c-0.2,0.6,0,1.3,0.6,1.5l3.2,1.4c0.3,0.1,0.6,0.1,0.9,0
						c0.3-0.1,0.5-0.3,0.6-0.6l1.4-3.2c0.2-0.6,0-1.3-0.6-1.5l-3.2-1.4C106.3,211.1,106,211.1,105.7,211.3L105.7,211.3z"/>
					<path class="st4" d="M115.2,203.7L112,205c-0.6,0.2-0.9,0.9-0.6,1.5l1.3,3.2c0.2,0.6,0.9,0.9,1.5,0.6l3.2-1.3
						c0.6-0.2,0.9-0.9,0.6-1.5l-1.3-3.2C116.5,203.7,115.8,203.5,115.2,203.7L115.2,203.7z"/>
				</g>
			</g>
			<g>
				<path class="st4" d="M96.5,184.9c3.9,0,7.1,3.2,7.1,7.1c0,3.9-3.2,7.1-7.1,7.1s-7.1-3.2-7.1-7.1
					C89.5,188.1,92.6,184.9,96.5,184.9 M96.5,180.2c-6.5,0-11.8,5.3-11.8,11.8s5.3,11.8,11.8,11.8c6.5,0,11.8-5.3,11.8-11.8
					C108.3,185.5,103,180.2,96.5,180.2L96.5,180.2z"/>
				<g>
					<path class="st4" d="M104.6,181c-0.2,0-0.5,0.1-0.7,0.3l-2,2c-0.4,0.4-0.4,1,0,1.3l2,2c0.2,0.2,0.4,0.3,0.7,0.3
						c0.2,0,0.5-0.1,0.7-0.3l2-2c0.4-0.4,0.4-1,0-1.3l-2-2C105,181.1,104.8,181,104.6,181L104.6,181z"/>
					<path class="st4" d="M109.3,189.6l-2.8,0c-0.5,0-0.9,0.4-0.9,0.9l0,2.8c0,0.5,0.4,0.9,0.9,0.9l2.8,0c0.5,0,0.9-0.4,0.9-0.9
						l0-2.8C110.2,190.1,109.8,189.6,109.3,189.6L109.3,189.6z"/>
					<path class="st4" d="M104.6,197.1c-0.2,0-0.5,0.1-0.7,0.3l-2,2c-0.4,0.4-0.4,1,0,1.3l2,2c0.2,0.2,0.4,0.3,0.7,0.3
						c0.2,0,0.5-0.1,0.7-0.3l2-2c0.4-0.4,0.4-1,0-1.3l-2-2C105,197.2,104.8,197.1,104.6,197.1L104.6,197.1z"/>
					<path class="st4" d="M97.9,201l-2.8,0c-0.5,0-0.9,0.4-0.9,0.9l0,2.8c0,0.5,0.4,0.9,0.9,0.9l2.8,0c0.5,0,0.9-0.4,0.9-0.9l0-2.8
						C98.9,201.4,98.5,201,97.9,201L97.9,201z"/>
					<path class="st4" d="M88.5,197.1c-0.2,0-0.5,0.1-0.7,0.3l-2,2c-0.4,0.4-0.4,1,0,1.3l2,2c0.2,0.2,0.4,0.3,0.7,0.3
						c0.2,0,0.5-0.1,0.7-0.3l2-2c0.4-0.4,0.4-1,0-1.3l-2-2C89,197.2,88.8,197.1,88.5,197.1L88.5,197.1z"/>
					<path class="st4" d="M86.6,189.6l-2.8,0c-0.5,0-0.9,0.4-0.9,0.9l0,2.8c0,0.5,0.4,0.9,0.9,0.9l2.8,0c0.5,0,0.9-0.4,0.9-0.9
						l0-2.8C87.6,190,87.1,189.6,86.6,189.6L86.6,189.6z"/>
					<path class="st4" d="M88.5,181c-0.2,0-0.5,0.1-0.7,0.3l-2,2c-0.4,0.4-0.4,1,0,1.3l2,2c0.2,0.2,0.4,0.3,0.7,0.3
						c0.2,0,0.5-0.1,0.7-0.3l2-2c0.4-0.4,0.4-1,0-1.3l-2-2C89,181.1,88.8,181,88.5,181L88.5,181z"/>
					<path class="st4" d="M98,178.3l-2.8,0c-0.5,0-0.9,0.4-0.9,0.9l0,2.8c0,0.5,0.4,0.9,0.9,0.9l2.8,0c0.5,0,0.9-0.4,0.9-0.9l0-2.8
						C98.9,178.7,98.5,178.3,98,178.3L98,178.3z"/>
				</g>
			</g>
		</g>
		<g>
			<defs>
				<path id="SVGID_1_" d="M79.5,141.3h90.7c2.8,0,5,2.2,5,5V237c0,2.8-2.2,5-5,5H79.5c-2.8,0-5-2.2-5-5v-90.7
					C74.5,143.6,76.8,141.3,79.5,141.3z"/>
			</defs>
			<clipPath id="SVGID_2_">
				<use xlink:href="#SVGID_1_"  style="overflow:visible;"/>
			</clipPath>
			<linearGradient id="SVGID_3_" gradientUnits="userSpaceOnUse" x1="84.9717" y1="124.037" x2="134.4863" y2="209.7987">
				<stop  offset="0" style="stop-color:#FFFFFF"/>
				<stop  offset="1" style="stop-color:#FFFFFF;stop-opacity:0"/>
			</linearGradient>
			<polygon class="st5" points="66.8,248.8 181.2,134.5 66.8,134.5 			"/>
		</g>
	</g>
	<g class="st1">
		<g>
			<g>
				<polygon class="st6" points="83,116 73.2,116 73.2,93 55.3,75.1 55.3,60.6 65.2,60.6 65.2,71.1 83,88.9 				"/>
			</g>
			<g>
				<polygon class="st6" points="106.5,116 96.6,116 96.6,68.1 79.1,50.6 79.1,36.3 89,36.3 89,46.6 106.5,64.1 				"/>
			</g>
			<g>
				<polygon class="st6" points="176.8,116.3 167,116.3 167,87.9 184.8,70.1 184.8,59.6 194.7,59.6 194.7,74.1 176.8,92 				"/>
			</g>
			<g>
				<polygon class="st6" points="153.4,116.3 143.5,116.3 143.5,64.4 161,46.9 161,36.6 170.9,36.6 170.9,51 153.4,68.5 				"/>
			</g>
			<g>
				<rect x="120.1" y="28.3" class="st6" width="9.9" height="87.7"/>
			</g>
		</g>
		<g>
			<g>
				<g>
					<g>
						<path class="st7" d="M165.6,121.1v-10.2c0-2.7,2.2-5,5-5h2.8c2.7,0,5,2.2,5,5v10.2c0,2.7-2.2,5-5,5h-2.8
							C167.8,126,165.6,123.8,165.6,121.1z"/>
					</g>
				</g>
			</g>
			<g>
				<g>
					<g>
						<path class="st7" d="M142.1,121.1v-10.2c0-2.7,2.2-5,5-5h2.8c2.7,0,5,2.2,5,5v10.2c0,2.7-2.2,5-5,5h-2.8
							C144.3,126,142.1,123.8,142.1,121.1z"/>
					</g>
				</g>
			</g>
			<g>
				<g>
					<g>
						<path class="st7" d="M118.6,121.1v-10.2c0-2.7,2.2-5,5-5h2.8c2.7,0,5,2.2,5,5v10.2c0,2.7-2.2,5-5,5h-2.8
							C120.9,126,118.6,123.8,118.6,121.1z"/>
					</g>
				</g>
			</g>
			<g>
				<g>
					<g>
						<path class="st7" d="M95.2,121.1v-10.2c0-2.7,2.2-5,5-5h2.8c2.7,0,5,2.2,5,5v10.2c0,2.7-2.2,5-5,5h-2.8
							C97.4,126,95.2,123.8,95.2,121.1z"/>
					</g>
				</g>
			</g>
			<g>
				<g>
					<g>
						<path class="st7" d="M71.7,121.1v-10.2c0-2.7,2.2-5,5-5h2.8c2.7,0,5,2.2,5,5v10.2c0,2.7-2.2,5-5,5h-2.8
							C74,126,71.7,123.8,71.7,121.1z"/>
					</g>
				</g>
			</g>
		</g>
		<g>
			<g>
				<path class="st7" d="M84,39.7c-8.8,0-15.9-7.1-15.9-15.9S75.3,8,84,8s15.9,7.1,15.9,15.9S92.8,39.7,84,39.7z M84,14.9
					c-5,0-9,4-9,9s4,9,9,9c5,0,9-4,9-9S89,14.9,84,14.9z"/>
			</g>
			<g>
				<path class="st7" d="M125,31.8c-8.8,0-15.9-7.1-15.9-15.9S116.2,0,125,0s15.9,7.1,15.9,15.9S133.8,31.8,125,31.8z M125,6.9
					c-5,0-9,4-9,9s4,9,9,9c5,0,9-4,9-9S130,6.9,125,6.9z"/>
			</g>
			<g>
				<path class="st7" d="M166,40.1c-8.8,0-15.9-7.1-15.9-15.9S157.2,8.3,166,8.3s15.9,7.1,15.9,15.9S174.7,40.1,166,40.1z M166,15.2
					c-5,0-9,4-9,9s4,9,9,9c5,0,9-4,9-9S170.9,15.2,166,15.2z"/>
			</g>
			<g>
				<path class="st7" d="M189.8,63.1c-8.8,0-15.9-7.1-15.9-15.9s7.1-15.9,15.9-15.9s15.9,7.1,15.9,15.9S198.5,63.1,189.8,63.1z
					 M189.8,38.2c-5,0-9,4-9,9s4,9,9,9s9-4,9-9S194.7,38.2,189.8,38.2z"/>
			</g>
			<g>
				<path class="st7" d="M60.2,64.1c-8.8,0-15.9-7.1-15.9-15.9s7.1-15.9,15.9-15.9s15.9,7.1,15.9,15.9S69,64.1,60.2,64.1z
					 M60.2,39.2c-5,0-9,4-9,9s4,9,9,9s9-4,9-9S65.2,39.2,60.2,39.2z"/>
			</g>
		</g>
	</g>
</g>
<g>
	<g>
		<g>
			<path class="st2" d="M71.7,133.4h106.6c2.8,0,5,2.2,5,5V245c0,2.8-2.2,5-5,5H71.7c-2.8,0-5-2.2-5-5V138.4
				C66.7,135.6,68.9,133.4,71.7,133.4z"/>
			<path class="st3" d="M79.7,141.4h90.7c2.8,0,5,2.2,5,5V237c0,2.8-2.2,5-5,5H79.7c-2.8,0-5-2.2-5-5v-90.7
				C74.7,143.6,76.9,141.4,79.7,141.4z"/>
		</g>
		<g>
			<defs>
				<path id="SVGID_4_" d="M79.7,141.4h90.7c2.8,0,5,2.2,5,5V237c0,2.8-2.2,5-5,5H79.7c-2.8,0-5-2.2-5-5v-90.7
					C74.7,143.6,76.9,141.4,79.7,141.4z"/>
			</defs>
			<clipPath id="SVGID_5_">
				<use xlink:href="#SVGID_4_"  style="overflow:visible;"/>
			</clipPath>
			<linearGradient id="SVGID_6_" gradientUnits="userSpaceOnUse" x1="85.1067" y1="124.0515" x2="134.6155" y2="209.8033">
				<stop  offset="0" style="stop-color:#FFFFFF"/>
				<stop  offset="1" style="stop-color:#FFFFFF;stop-opacity:0"/>
			</linearGradient>
			<polygon class="st8" points="67,248.8 181.3,134.5 67,134.5 			"/>
		</g>
	</g>
	<g>
		<g>
			<g>
				<polygon class="st6" points="83.1,116 73.1,116 73.1,93 55.3,75.2 55.3,60.7 65.2,60.7 65.2,71.1 83.1,88.9 				"/>
			</g>
			<g>
				<polygon class="st6" points="106.5,116 96.6,116 96.6,68.2 79.1,50.7 79.1,36.3 89,36.3 89,46.6 106.5,64.1 				"/>
			</g>
			<g>
				<polygon class="st6" points="176.9,116.3 166.9,116.3 166.9,87.9 184.8,70.1 184.8,59.7 194.7,59.7 194.7,74.2 176.9,92 				"/>
			</g>
			<g>
				<polygon class="st6" points="153.4,116.3 143.5,116.3 143.5,64.4 161,46.9 161,36.6 170.9,36.6 170.9,51 153.4,68.5 				"/>
			</g>
			<g>
				<rect x="120" y="28.3" class="st6" width="9.9" height="87.6"/>
			</g>
		</g>
		<g>
			<g>
				<g>
					<g>
						<path class="st7" d="M165.5,121.1v-10.2c0-2.7,2.2-5,5-5h2.8c2.7,0,5,2.2,5,5v10.2c0,2.7-2.2,5-5,5h-2.8
							C167.8,126,165.5,123.8,165.5,121.1z"/>
					</g>
				</g>
			</g>
			<g>
				<g>
					<g>
						<path class="st7" d="M142.1,121.1v-10.2c0-2.7,2.2-5,5-5h2.8c2.7,0,5,2.2,5,5v10.2c0,2.7-2.2,5-5,5h-2.8
							C144.3,126,142.1,123.8,142.1,121.1z"/>
					</g>
				</g>
			</g>
			<g>
				<g>
					<g>
						<path class="st7" d="M118.6,121.1v-10.2c0-2.7,2.2-5,5-5h2.8c2.7,0,5,2.2,5,5v10.2c0,2.7-2.2,5-5,5h-2.8
							C120.9,126,118.6,123.8,118.6,121.1z"/>
					</g>
				</g>
			</g>
			<g>
				<g>
					<g>
						<path class="st7" d="M95.2,121.1v-10.2c0-2.7,2.2-5,5-5h2.8c2.7,0,5,2.2,5,5v10.2c0,2.7-2.2,5-5,5h-2.8
							C97.4,126,95.2,123.8,95.2,121.1z"/>
					</g>
				</g>
			</g>
			<g>
				<g>
					<g>
						<path class="st7" d="M71.7,121.1v-10.2c0-2.7,2.2-5,5-5h2.8c2.7,0,5,2.2,5,5v10.2c0,2.7-2.2,5-5,5h-2.8
							C74,126,71.7,123.8,71.7,121.1z"/>
					</g>
				</g>
			</g>
		</g>
		<g>
			<g>
				<path class="st7" d="M84.1,39.8c-8.8,0-15.9-7.1-15.9-15.9S75.3,8,84.1,8S100,15.1,100,23.9S92.8,39.8,84.1,39.8z M84.1,14.9
					c-4.9,0-8.9,4-8.9,8.9s4,8.9,8.9,8.9c4.9,0,8.9-4,8.9-8.9S89,14.9,84.1,14.9z"/>
			</g>
			<g>
				<path class="st7" d="M125,31.8c-8.8,0-15.9-7.1-15.9-15.9S116.2,0,125,0s15.9,7.1,15.9,15.9S133.8,31.8,125,31.8z M125,7
					c-4.9,0-8.9,4-8.9,8.9s4,8.9,8.9,8.9c4.9,0,8.9-4,8.9-8.9S129.9,7,125,7z"/>
			</g>
			<g>
				<path class="st7" d="M165.9,40.1c-8.8,0-15.9-7.1-15.9-15.9s7.1-15.9,15.9-15.9c8.8,0,15.9,7.1,15.9,15.9S174.7,40.1,165.9,40.1
					z M165.9,15.2c-4.9,0-8.9,4-8.9,8.9s4,8.9,8.9,8.9c4.9,0,8.9-4,8.9-8.9S170.9,15.2,165.9,15.2z"/>
			</g>
			<g>
				<path class="st7" d="M189.8,63.1c-8.8,0-15.9-7.1-15.9-15.9s7.1-15.9,15.9-15.9c8.8,0,15.9,7.1,15.9,15.9S198.5,63.1,189.8,63.1
					z M189.8,38.3c-4.9,0-8.9,4-8.9,8.9s4,8.9,8.9,8.9c4.9,0,8.9-4,8.9-8.9S194.7,38.3,189.8,38.3z"/>
			</g>
			<g>
				<path class="st7" d="M60.2,64.1c-8.8,0-15.9-7.1-15.9-15.9s7.1-15.9,15.9-15.9s15.9,7.1,15.9,15.9S69,64.1,60.2,64.1z
					 M60.2,39.3c-4.9,0-8.9,4-8.9,8.9s4,8.9,8.9,8.9s8.9-4,8.9-8.9S65.2,39.3,60.2,39.3z"/>
			</g>
		</g>
	</g>
</g>
</svg>
