<?xml version="1.0" encoding="utf-8"?>
<!-- Generator: Adobe Illustrator 21.0.0, SVG Export Plug-In . SVG Version: 6.00 Build 0)  -->
<svg version="1.1" id="Layer_1" xmlns="http://www.w3.org/2000/svg" xmlns:xlink="http://www.w3.org/1999/xlink" x="0px" y="0px"
	 viewBox="0 0 250 250" style="enable-background:new 0 0 250 250;" xml:space="preserve">
<style type="text/css">
	.st0{fill:#0080FF;}
	.st1{fill:#D3D3D3;}
	.st2{fill:#BFBFBF;}
	.st3{fill:#DEDEDE;}
	.st4{fill:#1E1E1E;}
	.st5{fill:#161616;stroke:#161616;stroke-miterlimit:10;}
	.st6{fill:#0F0F0F;}
	.st7{fill:#080808;}
	.st8{fill:#4B4B4B;}
	.st9{fill:#CCE6FF;}
	.st10{opacity:0.3;fill:url(#SVGID_1_);enable-background:new    ;}
</style>
<polygon class="st0" points="233.3,187.5 233.3,62.5 125,0 16.7,62.5 16.7,187.5 125,250 "/>
<g id="ds">
	<g>
		<g>
			<path class="st1" d="M137.3,159.3c-0.2-3.1-6.3-4.7-12.3-4.8c-6,0.1-12.1,1.7-12.3,4.8c-0.7,9.7-1.7,12.6-1.7,12.6h14h13.9
				C138.9,171.9,137.9,168.9,137.3,159.3z"/>
			<path class="st2" d="M138.9,171.9h-27.8l-4.2,3.9c-0.3,0.3-0.1,0.8,0.4,0.8h35.5c0.5,0,0.7-0.5,0.4-0.8L138.9,171.9z"/>
		</g>
		<path class="st3" d="M185,159.3H65c-1.4,0-2.5-1.1-2.5-2.5v-8.9h125v8.9C187.5,158.2,186.4,159.3,185,159.3z"/>
	</g>
	<g>
		<g>
			<path class="st4" d="M187.5,147.9h-125v-72c0-1.4,1.1-2.5,2.5-2.5h120c1.4,0,2.5,1.1,2.5,2.5V147.9z"/>
			<g>
				<circle class="st5" cx="124.9" cy="75.5" r="1.1"/>
				<circle class="st6" cx="124.9" cy="75.5" r="0.5"/>
				<circle class="st7" cx="124.9" cy="75.5" r="0.3"/>
			</g>
			<rect x="67.7" y="78.8" class="st8" width="114.8" height="64.6"/>
			<g>
				<path class="st9" d="M108.3,124.1l-24.2-10.6c-0.7-0.3-1.2-1-1.2-1.8v-0.4c0-0.8,0.4-1.4,1.1-1.8l24.1-12
					c1.3-0.7,2.8,0.3,2.8,1.8l0,0c0,0.8-0.5,1.4-1.1,1.8L92,109.5c-1.5,0.7-1.4,2.9,0.1,3.5l17.6,7.4c0.7,0.3,1.2,1,1.2,1.8v0.2
					C111,123.7,109.6,124.6,108.3,124.1z"/>
				<path class="st9" d="M134.4,92.3L119.9,131c-0.3,0.8-1,1.3-1.8,1.3h-0.7c-1.3,0-2.3-1.4-1.8-2.6L130.1,91c0.3-0.8,1-1.3,1.8-1.3
					h0.7C133.9,89.7,134.9,91.1,134.4,92.3z"/>
				<path class="st9" d="M140.2,120.3l17.6-7.3c1.6-0.7,1.6-2.8,0.1-3.5l-17.8-8.5c-0.7-0.3-1.1-1-1.1-1.8l0,0
					c0-1.4,1.5-2.3,2.8-1.8l24.2,12.1c0.7,0.3,1.1,1,1.1,1.8v0.4c0,0.8-0.4,1.5-1.1,1.8l-24.2,10.6c-1.3,0.6-2.7-0.3-2.7-1.8v-0.2
					C139,121.3,139.5,120.7,140.2,120.3z"/>
			</g>
		</g>
		
			<linearGradient id="SVGID_1_" gradientUnits="userSpaceOnUse" x1="67.7" y1="1769.05" x2="182.4" y2="1769.05" gradientTransform="matrix(1 0 0 1 0 -1658)">
			<stop  offset="0" style="stop-color:#FFFFFF"/>
			<stop  offset="1" style="stop-color:#FFFFFF;stop-opacity:0"/>
		</linearGradient>
		<polygon class="st10" points="67.7,143.3 67.7,78.8 182.4,78.8 		"/>
	</g>
</g>
</svg>
