<?xml version="1.0" encoding="utf-8"?>
<!-- Generator: Adobe Illustrator 21.0.0, SVG Export Plug-In . SVG Version: 6.00 Build 0)  -->
<svg version="1.1" id="Layer_1" xmlns="http://www.w3.org/2000/svg" xmlns:xlink="http://www.w3.org/1999/xlink" x="0px" y="0px"
	 viewBox="0 0 250 250" style="enable-background:new 0 0 250 250;" xml:space="preserve">
<style type="text/css">
	.st0{fill:#D3D3D3;}
	.st1{fill:#BFBFBF;}
	.st2{fill:#DEDEDE;}
	.st3{fill:#161616;}
	.st4{fill:#161616;stroke:#161616;stroke-miterlimit:10;}
	.st5{fill:#0F0F0F;}
	.st6{fill:#080808;}
	.st7{fill:#1E1E1E;}
	.st8{fill:#0258A2;}
	.st9{opacity:0.3;fill:url(#SVGID_1_);}
</style>
<g id="ds">
	<g>
		<g>
			<path class="st0" d="M149.6,193.6c-0.4-6.1-12.5-9.3-24.6-9.5c-12.1,0.1-24.2,3.4-24.6,9.5c-1.3,19.3-3.3,25.2-3.3,25.2H125h27.8
				C152.8,218.8,150.8,212.9,149.6,193.6z"/>
			<path class="st1" d="M152.8,218.8H97.2l-8.4,7.8c-0.7,0.6-0.2,1.7,0.7,1.7h71.1c0.9,0,1.3-1.1,0.7-1.7L152.8,218.8z"/>
		</g>
		<path class="st2" d="M245,193.6H5c-2.8,0-5-2.2-5-5v-17.8h250v17.8C250,191.4,247.8,193.6,245,193.6z"/>
	</g>
	<g>
		<g>
			<path class="st3" d="M250,170.7H0v-144c0-2.8,2.2-5,5-5h240c2.8,0,5,2.2,5,5V170.7z"/>
			<g>
				<circle class="st4" cx="124.8" cy="26" r="2.2"/>
				<circle class="st5" cx="124.8" cy="26" r="1.1"/>
				<circle class="st6" cx="124.8" cy="26" r="0.6"/>
			</g>
			<rect x="10.3" y="32.5" class="st7" width="229.5" height="129.1"/>
			<g>
				<path class="st8" d="M91.6,123.1l-48.3-21.2c-1.4-0.6-2.3-2-2.3-3.5v-0.8c0-1.5,0.8-2.8,2.1-3.5l48.3-24.1
					c2.6-1.3,5.6,0.6,5.6,3.5v0c0,1.5-0.9,2.8-2.2,3.5L59.2,93.9c-3,1.4-2.9,5.8,0.2,7l35.2,14.8c1.4,0.6,2.4,2,2.4,3.6v0.3
					C97,122.4,94.1,124.2,91.6,123.1z"/>
				<path class="st8" d="M143.8,59.6l-28.9,77.4c-0.6,1.5-2,2.5-3.6,2.5h-1.4c-2.7,0-4.6-2.7-3.6-5.2L135.1,57
					c0.6-1.5,2-2.5,3.6-2.5h1.4C142.9,54.4,144.7,57.1,143.8,59.6z"/>
				<path class="st8" d="M155.4,115.7l35.2-14.7c3.1-1.3,3.2-5.6,0.2-7l-35.6-17c-1.3-0.6-2.2-2-2.2-3.5v0c0-2.9,3-4.7,5.6-3.5
					l48.3,24.1c1.3,0.7,2.1,2,2.1,3.5v0.8c0,1.5-0.9,2.9-2.3,3.5l-48.3,21.2c-2.6,1.1-5.4-0.7-5.4-3.5v-0.3
					C153,117.7,154,116.3,155.4,115.7z"/>
			</g>
		</g>
		<linearGradient id="SVGID_1_" gradientUnits="userSpaceOnUse" x1="10.2798" y1="97.0208" x2="239.7798" y2="97.0208">
			<stop  offset="0" style="stop-color:#FFFFFF"/>
			<stop  offset="1" style="stop-color:#FFFFFF;stop-opacity:0"/>
		</linearGradient>
		<polygon class="st9" points="10.3,161.6 10.3,32.5 239.8,32.5 		"/>
	</g>
</g>
</svg>
