<?xml version="1.0" encoding="utf-8"?>
<!-- Generator: Adobe Illustrator 21.0.0, SVG Export Plug-In . SVG Version: 6.00 Build 0)  -->
<svg version="1.1" id="Layer_1" xmlns="http://www.w3.org/2000/svg" xmlns:xlink="http://www.w3.org/1999/xlink" x="0px" y="0px"
	 viewBox="0 0 250 250" style="enable-background:new 0 0 250 250;" xml:space="preserve">
<style type="text/css">
	.st0{fill:#DEDEDE;}
	.st1{fill:#161616;}
	.st2{fill:#0258A2;}
	.st3{fill:#012C51;}
	.st4{fill:#3579B5;}
</style>
<g>
	<path class="st0" d="M250,25.6H0V10C0,4.4,4.4,0,10,0h230c5.6,0,10,4.4,10,10V25.6z"/>
	<path class="st1" d="M0,26v219c0,2.8,2.2,5,5,5h240c2.8,0,5-2.2,5-5V26H0z"/>
	<circle class="st2" cx="12.4" cy="13" r="5"/>
	<circle class="st2" cx="25.6" cy="13" r="5"/>
	<circle class="st2" cx="39" cy="13" r="5"/>
	<path class="st3" d="M65.8,232.4H27c-5.6,0-10-3.9-10-8.8V101.4h49v131H65.8z"/>
	<rect x="73" y="101.4" class="st4" width="159.4" height="39.7"/>
	<rect x="73" y="147.1" class="st4" width="159.4" height="39.7"/>
	<rect x="73" y="192.7" class="st4" width="159.4" height="39.7"/>
	<path class="st2" d="M232.6,94.4H17v-47c0-2.8,2.2-5,5-5h205.6c2.8,0,5,2.2,5,5V94.4z"/>
</g>
</svg>
