<?xml version="1.0" encoding="utf-8"?>
<!-- Generator: Adobe Illustrator 21.0.0, SVG Export Plug-In . SVG Version: 6.00 Build 0)  -->
<svg version="1.1" id="Layer_1" xmlns="http://www.w3.org/2000/svg" xmlns:xlink="http://www.w3.org/1999/xlink" x="0px" y="0px"
	 viewBox="0 0 250 250" style="enable-background:new 0 0 250 250;" xml:space="preserve">
<style type="text/css">
	.st0{fill:#0080FF;}
	.st1{display:none;fill:none;stroke:#1E1E1E;stroke-miterlimit:10;}
	.st2{display:none;}
	.st3{display:inline;}
	.st4{fill:#1E1E1E;}
	.st5{fill:#4B4B4B;}
	.st6{opacity:0.3;clip-path:url(#SVGID_2_);fill:url(#SVGID_3_);enable-background:new    ;}
</style>
<polygon class="st0" points="233.3,187.5 233.3,62.5 125,0 16.7,62.5 16.7,187.5 125,250 "/>
<g id="ee">
	<rect class="st1" width="249.9" height="249.9"/>
	<g id="ee_perspective" class="st2">
		<g class="st3">
			
				<image style="overflow:visible;enable-background:new    ;" width="138" height="138" xlink:href="5EA00AD1.png"  transform="matrix(1 0 0 1 55 56)">
			</image>
			<g>
				
					<image style="overflow:visible;opacity:0.37;enable-background:new    ;" width="174" height="174" xlink:href="5EA00AD0.png"  transform="matrix(1 0 0 1 48 48)">
				</image>
				<g>
					
						<image style="overflow:visible;enable-background:new    ;" width="150" height="150" xlink:href="5EA00ACB.png"  transform="matrix(1 0 0 1 55 55)">
					</image>
				</g>
			</g>
		</g>
		<g class="st3">
			
				<image style="overflow:visible;opacity:0.37;enable-background:new    ;" width="282" height="280" xlink:href="5EA00ACC.png"  transform="matrix(1 0 0 1 -11 -10)">
			</image>
			<g>
				<g>
					<g>
						<g>
							<g>
								<g>
									
										<image style="overflow:visible;enable-background:new    ;" width="48" height="16" xlink:href="5EA00ACD.png"  transform="matrix(1 0 0 1 202 62)">
									</image>
								</g>
							</g>
						</g>
						<g>
							<g>
								<g>
									
										<image style="overflow:visible;enable-background:new    ;" width="48" height="16" xlink:href="5EA00ACE.png"  transform="matrix(1 0 0 1 202 89)">
									</image>
								</g>
							</g>
						</g>
						<g>
							<g>
								<g>
									
										<image style="overflow:visible;enable-background:new    ;" width="48" height="16" xlink:href="5EA00ACF.png"  transform="matrix(1 0 0 1 202 117)">
									</image>
								</g>
							</g>
						</g>
						<g>
							<g>
								<g>
									
										<image style="overflow:visible;enable-background:new    ;" width="48" height="16" xlink:href="5EA00AEC.png"  transform="matrix(1 0 0 1 202 145)">
									</image>
								</g>
							</g>
						</g>
						<g>
							<g>
								<g>
									
										<image style="overflow:visible;enable-background:new    ;" width="48" height="16" xlink:href="5EA00AED.png"  transform="matrix(1 0 0 1 202 172)">
									</image>
								</g>
							</g>
						</g>
					</g>
					<g>
						<g>
							<g>
								<g>
									
										<image style="overflow:visible;enable-background:new    ;" width="16" height="48" xlink:href="AD219199.png"  transform="matrix(1 0 0 1 62 0)">
									</image>
								</g>
							</g>
						</g>
						<g>
							<g>
								<g>
									
										<image style="overflow:visible;enable-background:new    ;" width="16" height="48" xlink:href="AD21919A.png"  transform="matrix(1 0 0 1 89 0)">
									</image>
								</g>
							</g>
						</g>
						<g>
							<g>
								<g>
									
										<image style="overflow:visible;enable-background:new    ;" width="16" height="48" xlink:href="AD219198.png"  transform="matrix(1 0 0 1 117 0)">
									</image>
								</g>
							</g>
						</g>
						<g>
							<g>
								<g>
									
										<image style="overflow:visible;enable-background:new    ;" width="16" height="48" xlink:href="AD219188.png"  transform="matrix(1 0 0 1 145 0)">
									</image>
								</g>
							</g>
						</g>
						<g>
							<g>
								<g>
									
										<image style="overflow:visible;enable-background:new    ;" width="16" height="48" xlink:href="AD2191B1.png"  transform="matrix(1 0 0 1 172 0)">
									</image>
								</g>
							</g>
						</g>
					</g>
					<g>
						<g>
							<g>
								<g>
									
										<image style="overflow:visible;enable-background:new    ;" width="48" height="16" xlink:href="AD2191B2.png"  transform="matrix(1 0 0 1 0 62)">
									</image>
								</g>
							</g>
						</g>
						<g>
							<g>
								<g>
									
										<image style="overflow:visible;enable-background:new    ;" width="48" height="16" xlink:href="AD2191B3.png"  transform="matrix(1 0 0 1 0 89)">
									</image>
								</g>
							</g>
						</g>
						<g>
							<g>
								<g>
									
										<image style="overflow:visible;enable-background:new    ;" width="48" height="16" xlink:href="AD2191B4.png"  transform="matrix(1 0 0 1 0 117)">
									</image>
								</g>
							</g>
						</g>
						<g>
							<g>
								<g>
									
										<image style="overflow:visible;enable-background:new    ;" width="48" height="16" xlink:href="AD2191B5.png"  transform="matrix(1 0 0 1 0 145)">
									</image>
								</g>
							</g>
						</g>
						<g>
							<g>
								<g>
									
										<image style="overflow:visible;enable-background:new    ;" width="48" height="16" xlink:href="AD2191B6.png"  transform="matrix(1 0 0 1 0 172)">
									</image>
								</g>
							</g>
						</g>
					</g>
					<g>
						<g>
							<g>
								<g>
									
										<image style="overflow:visible;enable-background:new    ;" width="16" height="48" xlink:href="AD2191AA.png"  transform="matrix(1 0 0 1 172 202)">
									</image>
								</g>
							</g>
						</g>
						<g>
							<g>
								<g>
									
										<image style="overflow:visible;enable-background:new    ;" width="16" height="48" xlink:href="AD2191AB.png"  transform="matrix(1 0 0 1 144 202)">
									</image>
								</g>
							</g>
						</g>
						<g>
							<g>
								<g>
									
										<image style="overflow:visible;enable-background:new    ;" width="15" height="48" xlink:href="AD2191A8.png"  transform="matrix(1 0 0 1 117 202)">
									</image>
								</g>
							</g>
						</g>
						<g>
							<g>
								<g>
									
										<image style="overflow:visible;enable-background:new    ;" width="16" height="48" xlink:href="AD2191A9.png"  transform="matrix(1 0 0 1 89 202)">
									</image>
								</g>
							</g>
						</g>
						<g>
							<g>
								<g>
									
										<image style="overflow:visible;enable-background:new    ;" width="16" height="48" xlink:href="AD219196.png"  transform="matrix(1 0 0 1 61 202)">
									</image>
								</g>
							</g>
						</g>
					</g>
				</g>
			</g>
		</g>
	</g>
	<g id="ee_flat">
		<g>
			<g>
				<g>
					<path class="st4" d="M92.6,90.6h63.8c1.4,0,2.5,1.1,2.5,2.5v63.8c0,1.4-1.1,2.5-2.5,2.5H92.6c-1.4,0-2.5-1.1-2.5-2.5V93.1
						C90.1,91.7,91.2,90.6,92.6,90.6z"/>
					<path class="st5" d="M97.3,95.3h54.4c1.4,0,2.5,1.1,2.5,2.5v54.4c0,1.4-1.1,2.5-2.5,2.5H97.3c-1.4,0-2.5-1.1-2.5-2.5V97.8
						C94.8,96.4,95.9,95.3,97.3,95.3z"/>
				</g>
				<g>
					<g>
						<g>
							<g>
								<g>
									<g>
										<g>
											<defs>
												<path id="SVGID_1_" d="M97.3,95.3h54.4c1.4,0,2.5,1.1,2.5,2.5v54.4c0,1.4-1.1,2.5-2.5,2.5H97.3c-1.4,0-2.5-1.1-2.5-2.5
													V97.8C94.8,96.4,95.9,95.3,97.3,95.3z"/>
											</defs>
											<clipPath id="SVGID_2_">
												<use xlink:href="#SVGID_1_"  style="overflow:visible;"/>
											</clipPath>
											
												<linearGradient id="SVGID_3_" gradientUnits="userSpaceOnUse" x1="100.9641" y1="1743.0642" x2="130.1925" y2="1793.6891" gradientTransform="matrix(1 0 0 1 0 -1658)">
												<stop  offset="0" style="stop-color:#FFFFFF"/>
												<stop  offset="1" style="stop-color:#FFFFFF;stop-opacity:0"/>
											</linearGradient>
											<polygon class="st6" points="90.3,158.8 157.8,91.3 90.3,91.3 											"/>
										</g>
									</g>
								</g>
							</g>
						</g>
					</g>
				</g>
			</g>
			<g>
				<g>
					<g>
						<g>
							<g>
								<g>
									<path class="st4" d="M184.1,102.1h-18.8c-0.5-0.9-1.6-2-1.6-3.4v-2.5c0-1.4,1.1-2.5,2.5-2.5H185c1.4,0,2.5,1.1,2.5,2.5v2.5
										C187.5,100,186.4,101.2,184.1,102.1z"/>
								</g>
							</g>
						</g>
						<g>
							<g>
								<path class="st4" d="M184.1,115.8h-18.8c-1.4,0-2.5-1.1-2.5-2.5v-2.5c0-1.4,1.1-2.5,2.5-2.5h18.8c1.4,0,2.5,1.1,2.5,2.5v2.5
									C186.6,114.7,185.5,115.8,184.1,115.8z"/>
							</g>
						</g>
						<g>
							<g>
								<path class="st4" d="M184.1,129.7h-18.8c-1.4,0-2.5-1.1-2.5-2.5v-2.5c0-1.4,1.1-2.5,2.5-2.5h18.8c1.4,0,2.5,1.1,2.5,2.5v2.5
									C186.6,128.6,185.5,129.7,184.1,129.7z"/>
							</g>
						</g>
						<g>
							<g>
								<path class="st4" d="M184.1,143.5h-18.8c-0.5-0.9-1.6-2-1.6-3.4v-2.5c0-1.4,1.1-2.5,2.5-2.5H185c1.4,0,2.5,1.1,2.5,2.5v2.5
									C187.5,141.6,186.4,142.6,184.1,143.5z"/>
							</g>
						</g>
						<g>
							<g>
								<path class="st4" d="M184.1,157.4h-18.8c-1.4,0-2.5-1.1-2.5-2.5v-2.5c0-1.4,1.1-2.5,2.5-2.5h18.8c1.4,0,2.5,1.1,2.5,2.5v2.5
									C186.6,156.3,185.5,157.4,184.1,157.4z"/>
							</g>
						</g>
					</g>
					<g>
						<g>
							<g>
								<path class="st4" d="M82.9,102.1H64.1c-1.4,0-2.5-1.1-2.5-2.5v-2.5c0-1.4,1.1-2.5,2.5-2.5h18.8c1.4,0,2.5,1.1,2.5,2.5v2.5
									C85.4,100.9,84.3,102.1,82.9,102.1z"/>
							</g>
						</g>
						<g>
							<g>
								<path class="st4" d="M83.8,114.9H65c-1.4,0-2.5-1.1-2.5-2.5v-2.5c0-1.4,1.1-2.5,1.6-1.6h18.8c2.3-0.9,3.4,0.2,3.4,1.6v2.5
									C86.3,113.8,85.2,114.9,83.8,114.9z"/>
							</g>
						</g>
						<g>
							<g>
								<path class="st4" d="M83.8,128.8H65c-1.4,0-2.5-1.1-2.5-2.5v-2.5c0-1.4,1.1-2.5,1.6-1.6h18.8c2.3-0.9,3.4,0.2,3.4,1.6v2.5
									C86.3,127.7,85.2,128.8,83.8,128.8z"/>
							</g>
						</g>
						<g>
							<g>
								<path class="st4" d="M82.9,143.5H64.1c-1.4,0-2.5-1.1-2.5-2.5v-2.5c0-1.4,1.1-2.5,2.5-2.5h18.8c1.4,0,2.5,1.1,2.5,2.5v2.5
									C85.4,142.5,84.3,143.5,82.9,143.5z"/>
							</g>
						</g>
						<g>
							<g>
								<path class="st4" d="M83.8,156.5H65c-1.4,0-2.5-1.1-2.5-2.5v-2.5c0-1.4,1.1-2.5,1.6-1.6h18.8c2.3-0.9,3.4,0.2,3.4,1.6v2.5
									C86.3,155.4,85.2,156.5,83.8,156.5z"/>
							</g>
						</g>
					</g>
					<g>
						<g>
							<g>
								<path class="st4" d="M148,84.7V65.9c0-1.4,1.1-2.5,2.5-2.5h2.5c1.4,0,2.5,1.1,2.5,2.5v18.8c0,1.4-1.1,2.5-2.5,2.5h-2.5
									C149.2,87.2,148,86.1,148,84.7z"/>
							</g>
						</g>
						<g>
							<g>
								<path class="st4" d="M134.2,84.7V65.9c0-1.4,1.1-2.5,2.5-2.5h2.5c1.4,0,2.5,1.1,2.5,2.5v18.8c0,1.4-1.1,2.5-2.5,2.5h-2.5
									C135.3,87.2,134.2,86.1,134.2,84.7z"/>
							</g>
						</g>
						<g>
							<g>
								<path class="st4" d="M120.4,84.7V65.9c0-1.4,1.1-2.5,2.5-2.5h2.5c1.4,0,2.5,1.1,2.5,2.5v18.8c0,1.4-1.1,2.5-2.5,2.5h-2.5
									C121.4,87.2,120.4,86.1,120.4,84.7z"/>
							</g>
						</g>
						<g>
							<g>
								<path class="st4" d="M106.5,84.7V65.9c0.9-2.3,2-3.4,3.4-3.4h2.5c1.4,0,2.5,1.1,2.5,2.5v18.8c0,1.4-1.1,2.5-2.5,2.5h-2.5
									C108.6,86.3,107.4,85.2,106.5,84.7z"/>
							</g>
						</g>
						<g>
							<g>
								<path class="st4" d="M92.7,84.7V65.9c0-1.4,1.1-2.5,2.5-2.5h2.5c1.4,0,2.5,1.1,2.5,2.5v18.8c0,1.4-1.1,2.5-2.5,2.5h-2.5
									C93.8,87.2,92.7,86.1,92.7,84.7z"/>
							</g>
						</g>
					</g>
					<g>
						<g>
							<g>
								<path class="st4" d="M148.7,185v-18.8c0-1.4,1.1-2.5,2.5-2.5h2.5c1.4,0,2.5,1.1,1.6,3.4v18.8c0.9,0.5-0.2,1.6-1.6,1.6h-2.5
									C149.8,187.5,148.7,186.4,148.7,185z"/>
							</g>
						</g>
						<g>
							<g>
								<path class="st4" d="M134.9,185v-18.8c0-1.4,1.1-2.5,2.5-2.5h2.5c1.4,0,2.5,1.1,2.5,2.5V185c0,1.4-1.1,2.5-2.5,2.5h-2.5
									C135.9,187.5,134.9,186.4,134.9,185z"/>
							</g>
						</g>
						<g>
							<g>
								<path class="st4" d="M121,185v-18.8c0-1.4,1.1-2.5,2.5-2.5h2.5c1.4,0,2.5,1.1,2.5,2.5V185c0,1.4-1.1,2.5-2.5,2.5h-2.5
									C122.1,187.5,121,186.4,121,185z"/>
							</g>
						</g>
						<g>
							<g>
								<path class="st4" d="M107.2,185v-18.8c0-1.4,1.1-2.5,2.5-2.5h2.5c1.4,0,2.5,1.1,2.5,2.5V185c0,1.4-1.1,2.5-2.5,2.5h-2.5
									C108.3,187.5,107.2,186.4,107.2,185z"/>
							</g>
						</g>
						<g>
							<g>
								<path class="st4" d="M93.3,185v-18.8c0-1.4,1.1-2.5,2.5-2.5h2.5c1.4,0,2.5,1.1,2.5,2.5V185c0,1.4-1.1,2.5-2.5,2.5h-2.5
									C94.4,187.5,93.3,186.4,93.3,185z"/>
							</g>
						</g>
					</g>
				</g>
			</g>
		</g>
	</g>
</g>
</svg>
