<?xml version="1.0" encoding="utf-8"?>
<!-- Generator: Adobe Illustrator 21.0.0, SVG Export Plug-In . SVG Version: 6.00 Build 0)  -->
<svg version="1.1" id="Layer_1" xmlns="http://www.w3.org/2000/svg" xmlns:xlink="http://www.w3.org/1999/xlink" x="0px" y="0px"
	 viewBox="0 0 250 250" style="enable-background:new 0 0 250 250;" xml:space="preserve">
<style type="text/css">
	.st0{fill:#0080FF;}
	.st1{fill:#1E1E1E;}
	.st2{fill:#4B4B4B;}
	.st3{fill:#DEDEDE;}
	.st4{opacity:0.3;clip-path:url(#SVGID_2_);fill:url(#SVGID_3_);enable-background:new    ;}
</style>
<polygon class="st0" points="233.3,187.5 233.3,62.5 125,0 16.7,62.5 16.7,187.5 125,250 "/>
<g>
	<g>
		<g>
			<path class="st1" d="M98.3,129.2h53.4c1.4,0,2.4,1.1,2.4,2.4V185c0,1.4-1.1,2.5-2.4,2.5H98.3c-1.3,0-2.4-1.1-2.4-2.5v-53.4
				C95.8,130.3,96.9,129.2,98.3,129.2z"/>
			<path class="st2" d="M102.3,133.1h45.3c1.4,0,2.5,1.1,2.5,2.5V181c0,1.4-1.1,2.5-2.5,2.5h-45.3c-1.4,0-2.5-1.1-2.5-2.5v-45.4
				C99.8,134.3,100.9,133.1,102.3,133.1z"/>
		</g>
		<g>
			<g>
				<path class="st3" d="M131.9,143.2c4,0,7.3,3.3,7.3,7.3s-3.3,7.3-7.3,7.3s-7.3-3.3-7.3-7.3S127.9,143.2,131.9,143.2 M131.9,138.3
					c-6.7,0-12.2,5.4-12.2,12.2c0,6.7,5.5,12.1,12.2,12.1s12.2-5.4,12.2-12.1S138.7,138.3,131.9,138.3L131.9,138.3z"/>
				<g>
					<path class="st3" d="M140.2,139.2c-0.3,0-0.5,0.1-0.7,0.3l-2.1,2.1c-0.4,0.4-0.4,1,0,1.4l2.1,2.1c0.2,0.2,0.4,0.3,0.7,0.3
						s0.5-0.1,0.7-0.3l2.1-2.1c0.4-0.4,0.4-1,0-1.4l-2.1-2.1C140.7,139.3,140.4,139.2,140.2,139.2L140.2,139.2z"/>
					<path class="st3" d="M145.1,148.1h-2.9c-0.6,0-0.9,0.4-0.9,0.9v2.9c0,0.6,0.4,0.9,0.9,0.9h2.9c0.6,0,0.9-0.4,0.9-0.9V149
						C146.1,148.5,145.7,148.1,145.1,148.1L145.1,148.1z"/>
					<path class="st3" d="M140.2,155.8c-0.3,0-0.5,0.1-0.7,0.3l-2.1,2.1c-0.4,0.4-0.4,1,0,1.4l2.1,2.1c0.2,0.2,0.4,0.3,0.7,0.3
						s0.5-0.1,0.7-0.3l2.1-2.1c0.4-0.4,0.4-1,0-1.4l-2.1-2.1C140.7,155.8,140.4,155.8,140.2,155.8L140.2,155.8z"/>
					<path class="st3" d="M133.4,159.8h-2.9c-0.6,0-0.9,0.4-0.9,0.9v2.9c0,0.6,0.4,0.9,0.9,0.9h2.9c0.6,0,0.9-0.4,0.9-0.9v-2.9
						C134.4,160.2,133.9,159.8,133.4,159.8L133.4,159.8z"/>
					<path class="st3" d="M123.7,155.8c-0.3,0-0.5,0.1-0.7,0.3l-2.1,2.1c-0.4,0.4-0.4,1,0,1.4l2.1,2.1c0.2,0.2,0.4,0.3,0.7,0.3
						s0.5-0.1,0.7-0.3l2.1-2.1c0.4-0.4,0.4-1,0-1.4l-2.1-2.1C124.2,155.8,123.9,155.8,123.7,155.8L123.7,155.8z"/>
					<path class="st3" d="M121.7,148.1h-2.9c-0.5,0-0.9,0.4-0.9,0.9v2.9c0,0.6,0.4,0.9,0.9,0.9h2.9c0.6,0,1-0.4,1-0.9V149
						C122.7,148.5,122.3,148.1,121.7,148.1L121.7,148.1z"/>
					<path class="st3" d="M123.7,139.2c-0.3,0-0.5,0.1-0.7,0.3l-2.1,2.1c-0.4,0.4-0.4,1,0,1.4l2.1,2.1c0.2,0.2,0.4,0.3,0.7,0.3
						s0.5-0.1,0.7-0.3l2.1-2.1c0.4-0.4,0.4-1,0-1.4l-2.1-2.1C124.2,139.3,123.9,139.2,123.7,139.2L123.7,139.2z"/>
					<path class="st3" d="M133.4,136.3h-2.9c-0.6,0-0.9,0.4-0.9,0.9v2.9c0,0.6,0.4,0.9,0.9,0.9h2.9c0.6,0,0.9-0.4,0.9-0.9v-2.9
						C134.4,136.8,133.9,136.3,133.4,136.3L133.4,136.3z"/>
				</g>
			</g>
			<g>
				<path class="st3" d="M120.8,168.4c2.3-0.9,4.8,0.1,5.7,2.4c0.9,2.3-0.2,4.8-2.4,5.7c-2.3,0.9-4.8-0.1-5.7-2.4
					C117.5,171.9,118.7,169.4,120.8,168.4 M119.8,165.8c-3.7,1.5-5.5,5.8-4,9.5s5.8,5.5,9.5,4s5.5-5.8,4-9.5
					S123.5,164.3,119.8,165.8L119.8,165.8z"/>
				<g>
					<path class="st3" d="M124.5,164.3c-0.2,0.1-0.3,0.2-0.3,0.3l-0.7,1.6c-0.1,0.3,0,0.6,0.3,0.8l1.6,0.7c0.2,0.1,0.3,0.1,0.5,0
						s0.3-0.2,0.3-0.3l0.7-1.6c0.1-0.3,0-0.6-0.3-0.8l-1.6-0.7C124.8,164.3,124.7,164.3,124.5,164.3L124.5,164.3z"/>
					<path class="st3" d="M129.3,168.2l-1.6,0.6c-0.3,0.1-0.4,0.4-0.3,0.8l0.7,1.6c0.1,0.3,0.4,0.4,0.8,0.3l1.6-0.7
						c0.3-0.1,0.4-0.4,0.3-0.8l-0.7-1.6C129.9,168.2,129.6,168.1,129.3,168.2L129.3,168.2z"/>
					<path class="st3" d="M128.3,173.6c-0.1,0.1-0.3,0.1-0.3,0.3l-0.7,1.6c-0.1,0.3,0,0.7,0.3,0.8l1.6,0.7c0.1,0.1,0.3,0.1,0.4,0
						s0.3-0.1,0.3-0.3l0.7-1.6c0.1-0.3,0-0.7-0.3-0.8l-1.6-0.7C128.6,173.5,128.4,173.5,128.3,173.6L128.3,173.6z"/>
					<path class="st3" d="M125.5,177.3l-1.6,0.7c-0.3,0.1-0.4,0.4-0.3,0.8l0.7,1.6c0.1,0.3,0.4,0.4,0.8,0.3l1.6-0.6
						c0.3-0.1,0.4-0.4,0.3-0.8l-0.7-1.6C126.1,177.3,125.8,177.2,125.5,177.3L125.5,177.3z"/>
					<path class="st3" d="M119.1,177.3c-0.2,0.1-0.3,0.1-0.3,0.3l-0.7,1.6c-0.1,0.3,0,0.7,0.3,0.8l1.6,0.7c0.2,0.1,0.3,0.1,0.5,0
						s0.3-0.1,0.3-0.3l0.7-1.6c0.1-0.3,0-0.7-0.3-0.8l-1.6-0.7C119.4,177.3,119.3,177.3,119.1,177.3L119.1,177.3z"/>
					<path class="st3" d="M116.3,173.5l-1.6,0.6c-0.3,0.1-0.4,0.4-0.3,0.8l0.7,1.6c0.1,0.3,0.4,0.4,0.8,0.3l1.6-0.7
						c0.3-0.1,0.4-0.4,0.3-0.8l-0.7-1.6C116.9,173.5,116.6,173.3,116.3,173.5L116.3,173.5z"/>
					<path class="st3" d="M115.3,168.1c-0.2,0.1-0.3,0.2-0.3,0.3l-0.7,1.6c-0.1,0.3,0,0.6,0.3,0.8l1.6,0.7c0.2,0.1,0.3,0.1,0.5,0
						s0.3-0.2,0.3-0.3l0.7-1.6c0.1-0.3,0-0.6-0.3-0.8l-1.6-0.7C115.7,168.1,115.5,168.1,115.3,168.1L115.3,168.1z"/>
					<path class="st3" d="M120.1,164.3l-1.6,0.7c-0.3,0.1-0.5,0.4-0.3,0.8l0.7,1.6c0.1,0.3,0.5,0.4,0.8,0.3l1.6-0.6
						c0.3-0.1,0.5-0.4,0.3-0.8l-0.7-1.6C120.8,164.3,120.4,164.3,120.1,164.3L120.1,164.3z"/>
				</g>
			</g>
			<g>
				<path class="st3" d="M110.8,154.9c1.9,0,3.5,1.6,3.5,3.6c0,1.9-1.6,3.6-3.5,3.6c-2,0-3.6-1.6-3.6-3.6
					C107.3,156.6,108.8,154.9,110.8,154.9 M110.8,152.6c-3.3,0-5.9,2.7-5.9,5.9s2.7,5.9,5.9,5.9s5.9-2.6,5.9-5.9
					S114,152.6,110.8,152.6L110.8,152.6z"/>
				<g>
					<path class="st3" d="M114.8,153c-0.1,0-0.3,0.1-0.3,0.1l-1,1c-0.2,0.2-0.2,0.5,0,0.7l1,1c0.1,0.1,0.2,0.1,0.3,0.1
						c0.1,0,0.3-0.1,0.3-0.1l1-1c0.2-0.2,0.2-0.5,0-0.7l-1-1C115,153.1,114.9,153,114.8,153L114.8,153z"/>
					<path class="st3" d="M117.2,157.3h-1.4c-0.3,0-0.5,0.2-0.5,0.4v1.4c0,0.3,0.2,0.4,0.5,0.4h1.4c0.3,0,0.4-0.2,0.4-0.4v-1.4
						C117.6,157.6,117.4,157.3,117.2,157.3L117.2,157.3z"/>
					<path class="st3" d="M114.8,161.1c-0.1,0-0.3,0.1-0.3,0.1l-1,1c-0.2,0.2-0.2,0.5,0,0.7l1,1c0.1,0.1,0.2,0.1,0.3,0.1
						c0.1,0,0.3-0.1,0.3-0.1l1-1c0.2-0.2,0.2-0.5,0-0.7l-1-1C115,161.1,114.9,161.1,114.8,161.1L114.8,161.1z"/>
					<path class="st3" d="M111.4,163H110c-0.3,0-0.4,0.2-0.4,0.4v1.4c0,0.3,0.2,0.4,0.4,0.4h1.4c0.3,0,0.5-0.2,0.5-0.4v-1.4
						C111.9,163.2,111.8,163,111.4,163L111.4,163z"/>
					<path class="st3" d="M106.8,161.1c-0.1,0-0.3,0.1-0.3,0.1l-1,1c-0.2,0.2-0.2,0.5,0,0.7l1,1c0.1,0.1,0.2,0.1,0.3,0.1
						c0.1,0,0.3-0.1,0.3-0.1l1-1c0.2-0.2,0.2-0.5,0-0.7l-1-1C107,161.1,106.9,161.1,106.8,161.1L106.8,161.1z"/>
					<path class="st3" d="M105.8,157.3h-1.4c-0.3,0-0.4,0.2-0.4,0.4v1.4c0,0.3,0.2,0.4,0.4,0.4h1.4c0.3,0,0.5-0.2,0.5-0.4v-1.4
						C106.3,157.5,106,157.3,105.8,157.3L105.8,157.3z"/>
					<path class="st3" d="M106.8,153c-0.1,0-0.3,0.1-0.3,0.1l-1,1c-0.2,0.2-0.2,0.5,0,0.7l1,1c0.1,0.1,0.2,0.1,0.3,0.1
						c0.1,0,0.3-0.1,0.3-0.1l1-1c0.2-0.2,0.2-0.5,0-0.7l-1-1C107,153.1,106.9,153,106.8,153L106.8,153z"/>
					<path class="st3" d="M111.5,151.6h-1.4c-0.3,0-0.5,0.2-0.5,0.4v1.4c0,0.3,0.2,0.4,0.5,0.4h1.4c0.3,0,0.4-0.2,0.4-0.4V152
						C111.9,151.8,111.8,151.6,111.5,151.6L111.5,151.6z"/>
				</g>
			</g>
		</g>
		<g>
			<g>
				<g>
					<g>
						<g>
							<g>
								<defs>
									<path id="SVGID_1_" d="M102.3,133.1h45.4c1.4,0,2.5,1.1,2.5,2.5V181c0,1.4-1.1,2.5-2.5,2.5h-45.4c-1.4,0-2.5-1.1-2.5-2.5
										v-45.4C99.8,134.3,100.9,133.1,102.3,133.1z"/>
								</defs>
								<clipPath id="SVGID_2_">
									<use xlink:href="#SVGID_1_"  style="overflow:visible;"/>
								</clipPath>
								
									<linearGradient id="SVGID_3_" gradientUnits="userSpaceOnUse" x1="104.9876" y1="-702.5533" x2="129.7126" y2="-745.3785" gradientTransform="matrix(1 0 0 -1 0 -578)">
									<stop  offset="0" style="stop-color:#FFFFFF"/>
									<stop  offset="1" style="stop-color:#FFFFFF;stop-opacity:0"/>
								</linearGradient>
								<polygon class="st4" points="95.9,186.9 153.1,129.8 95.9,129.8 								"/>
							</g>
						</g>
					</g>
				</g>
			</g>
		</g>
	</g>
	<g>
		<g>
			<g>
				<polygon class="st3" points="104,120.5 99.1,120.5 99.1,109 90.1,100 90.1,92.8 95.1,92.8 95.1,98 104,106.9 				"/>
			</g>
			<g>
				<polygon class="st3" points="115.8,120.5 110.8,120.5 110.8,96.5 102,87.8 102,80.6 107,80.6 107,85.8 115.8,94.5 				"/>
			</g>
			<g>
				<polygon class="st3" points="150.9,120.6 146,120.6 146,106.4 154.9,97.5 154.9,92.3 159.9,92.3 159.9,99.5 150.9,108.5 				"/>
			</g>
			<g>
				<polygon class="st3" points="139.2,120.6 134.3,120.6 134.3,94.7 143,85.9 143,80.8 147.9,80.8 147.9,88 139.2,96.7 				"/>
			</g>
			<g>
				<rect x="122.5" y="76.6" class="st3" width="5" height="43.9"/>
			</g>
		</g>
		<g>
			<g>
				<g>
					<g>
						<path class="st1" d="M145.3,123v-5.1c0-1.3,1.1-2.5,2.5-2.5h1.4c1.3,0,2.5,1.1,2.5,2.5v5.1c0,1.3-1.1,2.5-2.5,2.5h-1.4
							C146.4,125.5,145.3,124.4,145.3,123z"/>
					</g>
				</g>
			</g>
			<g>
				<g>
					<g>
						<path class="st1" d="M133.6,123v-5.1c0-1.3,1.1-2.5,2.5-2.5h1.4c1.3,0,2.5,1.1,2.5,2.5v5.1c0,1.3-1.1,2.5-2.5,2.5h-1.4
							C134.7,125.5,133.6,124.4,133.6,123z"/>
					</g>
				</g>
			</g>
			<g>
				<g>
					<g>
						<path class="st1" d="M121.8,123v-5.1c0-1.3,1.1-2.5,2.5-2.5h1.4c1.3,0,2.5,1.1,2.5,2.5v5.1c0,1.3-1.1,2.5-2.5,2.5h-1.4
							C122.9,125.5,121.8,124.4,121.8,123z"/>
					</g>
				</g>
			</g>
			<g>
				<g>
					<g>
						<path class="st1" d="M110.1,123v-5.1c0-1.3,1.1-2.5,2.5-2.5h1.4c1.3,0,2.5,1.1,2.5,2.5v5.1c0,1.3-1.1,2.5-2.5,2.5h-1.4
							C111.2,125.5,110.1,124.4,110.1,123z"/>
					</g>
				</g>
			</g>
			<g>
				<g>
					<g>
						<path class="st1" d="M98.3,123v-5.1c0-1.3,1.1-2.5,2.5-2.5h1.4c1.3,0,2.5,1.1,2.5,2.5v5.1c0,1.3-1.1,2.5-2.5,2.5h-1.4
							C99.5,125.5,98.3,124.4,98.3,123z"/>
					</g>
				</g>
			</g>
		</g>
		<g>
			<g>
				<path class="st2" d="M104.5,82.3c-4.4,0-8-3.5-8-7.9s3.6-7.9,8-7.9s7.9,3.6,7.9,7.9C112.4,78.8,108.9,82.3,104.5,82.3z
					 M104.5,69.9c-2.5,0-4.5,2-4.5,4.5s2,4.5,4.5,4.5s4.5-2,4.5-4.5S107,69.9,104.5,69.9z"/>
			</g>
			<g>
				<path class="st2" d="M125,78.4c-4.4,0-8-3.6-8-8s3.6-7.9,8-7.9c4.4,0,7.9,3.6,7.9,7.9C132.9,74.8,129.4,78.4,125,78.4z
					 M125,65.9c-2.5,0-4.5,2-4.5,4.5s2,4.5,4.5,4.5s4.5-2,4.5-4.5S127.5,65.9,125,65.9z"/>
			</g>
			<g>
				<path class="st2" d="M145.5,82.5c-4.4,0-7.9-3.6-7.9-8s3.6-7.9,7.9-7.9c4.4,0,7.9,3.5,7.9,7.9S149.9,82.5,145.5,82.5z
					 M145.5,70.1c-2.5,0-4.5,2-4.5,4.5s2,4.5,4.5,4.5s4.5-2,4.5-4.5S147.9,70.1,145.5,70.1z"/>
			</g>
			<g>
				<path class="st2" d="M157.4,94c-4.4,0-7.9-3.6-7.9-8s3.6-7.9,7.9-7.9s7.9,3.5,7.9,7.9S161.8,94,157.4,94z M157.4,81.6
					c-2.5,0-4.5,2-4.5,4.5s2,4.5,4.5,4.5s4.5-2,4.5-4.5S159.9,81.6,157.4,81.6z"/>
			</g>
			<g>
				<path class="st2" d="M92.6,94.5c-4.4,0-7.9-3.6-7.9-8s3.5-7.9,7.9-7.9s8,3.5,8,7.9S97,94.5,92.6,94.5z M92.6,82.1
					c-2.5,0-4.5,2-4.5,4.5s2,4.5,4.5,4.5s4.5-2,4.5-4.5S95.1,82.1,92.6,82.1z"/>
			</g>
		</g>
	</g>
</g>
</svg>
